<svg width="256" height="256" viewBox="0 0 256 256" fill="none" xmlns="http://www.w3.org/2000/svg">
<path d="M74.8333 3.99006V1.45455H86.7793V3.99006H82.3262V16H79.2864V3.99006H74.8333ZM88.7466 16V1.45455H91.8219V7.45597H98.0648V1.45455H101.133V16H98.0648V9.99148H91.8219V16H88.7466ZM106.744 1.45455V16H103.669V1.45455H106.744ZM117.165 5.63778C117.108 5.06487 116.864 4.61979 116.433 4.30256C116.002 3.98532 115.417 3.8267 114.679 3.8267C114.177 3.8267 113.753 3.89773 113.407 4.03977C113.062 4.17708 112.797 4.36884 112.612 4.61506C112.432 4.86127 112.342 5.14062 112.342 5.45312C112.333 5.71354 112.387 5.94081 112.506 6.13494C112.629 6.32907 112.797 6.49716 113.01 6.6392C113.223 6.77651 113.469 6.89725 113.748 7.00142C114.028 7.10085 114.326 7.18608 114.643 7.2571L115.95 7.5696C116.585 7.71165 117.167 7.90104 117.697 8.13778C118.228 8.37453 118.687 8.66572 119.075 9.01136C119.463 9.35701 119.764 9.7642 119.977 10.233C120.195 10.7017 120.306 11.2391 120.311 11.8452C120.306 12.7353 120.079 13.5071 119.629 14.1605C119.184 14.8092 118.54 15.3134 117.697 15.6733C116.859 16.0284 115.848 16.206 114.665 16.206C113.49 16.206 112.468 16.026 111.596 15.6662C110.73 15.3063 110.053 14.7737 109.565 14.0682C109.082 13.358 108.829 12.4796 108.805 11.4332H111.781C111.814 11.9209 111.954 12.3281 112.2 12.6548C112.451 12.9768 112.785 13.2206 113.202 13.3864C113.623 13.5473 114.099 13.6278 114.629 13.6278C115.15 13.6278 115.602 13.5521 115.986 13.4006C116.374 13.2491 116.675 13.0384 116.888 12.7685C117.101 12.4986 117.207 12.1884 117.207 11.8381C117.207 11.5114 117.11 11.2367 116.916 11.0142C116.727 10.7917 116.447 10.6023 116.078 10.446C115.713 10.2898 115.266 10.1477 114.736 10.0199L113.152 9.62216C111.925 9.32386 110.957 8.85748 110.247 8.22301C109.537 7.58854 109.184 6.7339 109.189 5.65909C109.184 4.77841 109.418 4.009 109.892 3.35085C110.37 2.69271 111.026 2.17898 111.859 1.80966C112.693 1.44034 113.64 1.25568 114.7 1.25568C115.78 1.25568 116.722 1.44034 117.527 1.80966C118.336 2.17898 118.966 2.69271 119.416 3.35085C119.866 4.009 120.098 4.77131 120.112 5.63778H117.165ZM130.084 1.45455V16H127.008V1.45455H130.084ZM140.504 5.63778C140.448 5.06487 140.204 4.61979 139.773 4.30256C139.342 3.98532 138.757 3.8267 138.019 3.8267C137.517 3.8267 137.093 3.89773 136.747 4.03977C136.402 4.17708 136.137 4.36884 135.952 4.61506C135.772 4.86127 135.682 5.14062 135.682 5.45312C135.673 5.71354 135.727 5.94081 135.845 6.13494C135.968 6.32907 136.137 6.49716 136.35 6.6392C136.563 6.77651 136.809 6.89725 137.088 7.00142C137.368 7.10085 137.666 7.18608 137.983 7.2571L139.29 7.5696C139.924 7.71165 140.507 7.90104 141.037 8.13778C141.567 8.37453 142.027 8.66572 142.415 9.01136C142.803 9.35701 143.104 9.7642 143.317 10.233C143.535 10.7017 143.646 11.2391 143.651 11.8452C143.646 12.7353 143.419 13.5071 142.969 14.1605C142.524 14.8092 141.88 15.3134 141.037 15.6733C140.199 16.0284 139.188 16.206 138.004 16.206C136.83 16.206 135.807 16.026 134.936 15.6662C134.07 15.3063 133.393 14.7737 132.905 14.0682C132.422 13.358 132.169 12.4796 132.145 11.4332H135.121C135.154 11.9209 135.294 12.3281 135.54 12.6548C135.791 12.9768 136.125 13.2206 136.541 13.3864C136.963 13.5473 137.439 13.6278 137.969 13.6278C138.49 13.6278 138.942 13.5521 139.325 13.4006C139.714 13.2491 140.014 13.0384 140.227 12.7685C140.441 12.4986 140.547 12.1884 140.547 11.8381C140.547 11.5114 140.45 11.2367 140.256 11.0142C140.066 10.7917 139.787 10.6023 139.418 10.446C139.053 10.2898 138.606 10.1477 138.075 10.0199L136.492 9.62216C135.265 9.32386 134.297 8.85748 133.587 8.22301C132.877 7.58854 132.524 6.7339 132.529 5.65909C132.524 4.77841 132.758 4.009 133.232 3.35085C133.71 2.69271 134.366 2.17898 135.199 1.80966C136.032 1.44034 136.979 1.25568 138.04 1.25568C139.119 1.25568 140.062 1.44034 140.867 1.80966C141.676 2.17898 142.306 2.69271 142.756 3.35085C143.206 4.009 143.438 4.77131 143.452 5.63778H140.504ZM150.348 1.45455H154.141L158.146 11.2273H158.317L162.323 1.45455H166.115V16H163.132V6.53267H163.012L159.247 15.929H157.216L153.452 6.49716H153.331V16H150.348V1.45455ZM167.797 1.45455H171.241L174.558 7.71875H174.7L178.017 1.45455H181.461L176.156 10.858V16H173.102V10.858L167.797 1.45455Z" fill="black"/>
<path d="M53.1731 241.977V239.442H65.1191V241.977H60.666V253.987H57.6262V241.977H53.1731ZM76.0708 239.442H79.1461V248.888C79.1461 249.948 78.8928 250.876 78.3862 251.672C77.8843 252.467 77.1812 253.088 76.2768 253.533C75.3725 253.973 74.319 254.193 73.1163 254.193C71.9089 254.193 70.853 253.973 69.9487 253.533C69.0443 253.088 68.3412 252.467 67.8393 251.672C67.3374 250.876 67.0865 249.948 67.0865 248.888V239.442H70.1618V248.625C70.1618 249.179 70.2825 249.671 70.524 250.102C70.7702 250.533 71.1158 250.872 71.5609 251.118C72.006 251.364 72.5244 251.487 73.1163 251.487C73.7129 251.487 74.2314 251.364 74.6717 251.118C75.1168 250.872 75.46 250.533 75.7015 250.102C75.9477 249.671 76.0708 249.179 76.0708 248.625V239.442ZM81.6763 253.987V239.442H91.4775V241.977H84.7516V245.443H90.9732V247.979H84.7516V251.452H91.5059V253.987H81.6763ZM101.813 243.625C101.756 243.052 101.512 242.607 101.081 242.29C100.651 241.973 100.066 241.814 99.3272 241.814C98.8253 241.814 98.4016 241.885 98.0559 242.027C97.7103 242.164 97.4451 242.356 97.2605 242.602C97.0806 242.848 96.9906 243.128 96.9906 243.44C96.9811 243.701 97.0356 243.928 97.1539 244.122C97.277 244.316 97.4451 244.484 97.6582 244.626C97.8713 244.764 98.1175 244.884 98.3968 244.989C98.6762 245.088 98.9745 245.173 99.2917 245.244L100.599 245.557C101.233 245.699 101.815 245.888 102.346 246.125C102.876 246.362 103.335 246.653 103.724 246.999C104.112 247.344 104.412 247.751 104.626 248.22C104.843 248.689 104.955 249.226 104.959 249.832C104.955 250.723 104.727 251.494 104.278 252.148C103.832 252.796 103.189 253.301 102.346 253.661C101.508 254.016 100.497 254.193 99.313 254.193C98.1388 254.193 97.1161 254.013 96.2449 253.653C95.3784 253.294 94.7013 252.761 94.2136 252.055C93.7306 251.345 93.4773 250.467 93.4537 249.42H96.4295C96.4627 249.908 96.6023 250.315 96.8485 250.642C97.0995 250.964 97.4333 251.208 97.85 251.374C98.2714 251.535 98.7472 251.615 99.2775 251.615C99.7984 251.615 100.251 251.539 100.634 251.388C101.022 251.236 101.323 251.026 101.536 250.756C101.749 250.486 101.856 250.176 101.856 249.825C101.856 249.499 101.759 249.224 101.564 249.001C101.375 248.779 101.096 248.589 100.726 248.433C100.362 248.277 99.9144 248.135 99.3841 248.007L97.8002 247.609C96.5739 247.311 95.6056 246.845 94.8954 246.21C94.1852 245.576 93.8324 244.721 93.8372 243.646C93.8324 242.766 94.0668 241.996 94.5403 241.338C95.0185 240.68 95.6743 240.166 96.5076 239.797C97.341 239.428 98.2879 239.243 99.3485 239.243C100.428 239.243 101.37 239.428 102.175 239.797C102.985 240.166 103.615 240.68 104.064 241.338C104.514 241.996 104.746 242.759 104.76 243.625H101.813ZM112.184 253.987H107.028V239.442H112.227C113.69 239.442 114.949 239.733 116.005 240.315C117.061 240.893 117.873 241.724 118.441 242.808C119.014 243.893 119.301 245.19 119.301 246.7C119.301 248.215 119.014 249.518 118.441 250.607C117.873 251.696 117.056 252.531 115.991 253.114C114.93 253.696 113.661 253.987 112.184 253.987ZM110.103 251.352H112.056C112.965 251.352 113.73 251.191 114.35 250.869C114.975 250.543 115.444 250.038 115.757 249.357C116.074 248.67 116.232 247.785 116.232 246.7C116.232 245.625 116.074 244.747 115.757 244.065C115.444 243.384 114.978 242.882 114.357 242.56C113.737 242.238 112.972 242.077 112.063 242.077H110.103V251.352ZM123.265 253.987H119.97L124.991 239.442H128.954L133.969 253.987H130.673L127.03 242.766H126.916L123.265 253.987ZM123.059 248.27H130.844V250.67H123.059V248.27ZM133.383 239.442H136.827L140.144 245.706H140.286L143.603 239.442H147.047L141.742 248.845V253.987H138.688V248.845L133.383 239.442ZM153.356 253.987V239.442H162.987V241.977H156.431V245.443H162.347V247.979H156.431V253.987H153.356ZM165.746 253.987H162.45L167.472 239.442H171.435L176.449 253.987H173.154L169.51 242.766H169.396L165.746 253.987ZM165.54 248.27H173.324V250.67H165.54V248.27ZM190.35 244.534H187.239C187.182 244.132 187.066 243.774 186.891 243.462C186.716 243.144 186.491 242.875 186.216 242.652C185.942 242.429 185.625 242.259 185.265 242.141C184.91 242.022 184.524 241.963 184.107 241.963C183.354 241.963 182.698 242.15 182.14 242.524C181.581 242.893 181.148 243.433 180.84 244.143C180.532 244.849 180.378 245.706 180.378 246.714C180.378 247.751 180.532 248.623 180.84 249.328C181.153 250.034 181.588 250.566 182.147 250.926C182.706 251.286 183.352 251.466 184.086 251.466C184.498 251.466 184.879 251.411 185.229 251.303C185.584 251.194 185.899 251.035 186.174 250.827C186.448 250.614 186.676 250.356 186.856 250.053C187.04 249.75 187.168 249.404 187.239 249.016L190.35 249.03C190.269 249.697 190.068 250.341 189.746 250.962C189.429 251.577 189.001 252.129 188.461 252.616C187.926 253.099 187.287 253.483 186.543 253.767C185.805 254.046 184.969 254.186 184.036 254.186C182.739 254.186 181.579 253.893 180.556 253.305C179.538 252.718 178.733 251.868 178.141 250.756C177.554 249.643 177.26 248.296 177.26 246.714C177.26 245.128 177.559 243.779 178.155 242.666C178.752 241.554 179.562 240.706 180.584 240.124C181.607 239.536 182.758 239.243 184.036 239.243C184.879 239.243 185.66 239.361 186.38 239.598C187.104 239.835 187.746 240.18 188.305 240.635C188.863 241.085 189.318 241.636 189.668 242.29C190.023 242.943 190.251 243.691 190.35 244.534ZM192.555 253.987V239.442H202.356V241.977H195.631V245.443H201.852V247.979H195.631V251.452H202.385V253.987H192.555Z" fill="black"/>
</svg>
