<svg width="256" height="256" viewBox="0 0 256 256" fill="none" xmlns="http://www.w3.org/2000/svg">
<path d="M79.1204 3.99006V1.45455H91.0664V3.99006H86.6133V16H83.5735V3.99006H79.1204ZM105.736 8.72727C105.736 10.3134 105.435 11.6629 104.834 12.7756C104.238 13.8883 103.423 14.7382 102.391 15.3253C101.364 15.9077 100.208 16.1989 98.9251 16.1989C97.6325 16.1989 96.4724 15.9053 95.445 15.3182C94.4175 14.7311 93.6055 13.8812 93.0089 12.7685C92.4123 11.6558 92.114 10.3087 92.114 8.72727C92.114 7.1411 92.4123 5.79167 93.0089 4.67898C93.6055 3.56629 94.4175 2.71875 95.445 2.13636C96.4724 1.54924 97.6325 1.25568 98.9251 1.25568C100.208 1.25568 101.364 1.54924 102.391 2.13636C103.423 2.71875 104.238 3.56629 104.834 4.67898C105.435 5.79167 105.736 7.1411 105.736 8.72727ZM102.618 8.72727C102.618 7.69981 102.464 6.83333 102.157 6.12784C101.854 5.42235 101.425 4.88731 100.871 4.52273C100.317 4.15814 99.6684 3.97585 98.9251 3.97585C98.1817 3.97585 97.533 4.15814 96.979 4.52273C96.4251 4.88731 95.9942 5.42235 95.6864 6.12784C95.3834 6.83333 95.2319 7.69981 95.2319 8.72727C95.2319 9.75473 95.3834 10.6212 95.6864 11.3267C95.9942 12.0322 96.4251 12.5672 96.979 12.9318C97.533 13.2964 98.1817 13.4787 98.9251 13.4787C99.6684 13.4787 100.317 13.2964 100.871 12.9318C101.425 12.5672 101.854 12.0322 102.157 11.3267C102.464 10.6212 102.618 9.75473 102.618 8.72727ZM108.014 16V1.45455H113.753C114.856 1.45455 115.796 1.66525 116.572 2.08665C117.349 2.50331 117.941 3.08333 118.348 3.8267C118.76 4.56534 118.966 5.41761 118.966 6.38352C118.966 7.34943 118.758 8.2017 118.341 8.94034C117.924 9.67898 117.321 10.2543 116.53 10.6662C115.744 11.0781 114.792 11.2841 113.675 11.2841H110.017V8.8196H113.178C113.769 8.8196 114.257 8.7178 114.641 8.5142C115.029 8.30587 115.318 8.01941 115.507 7.65483C115.701 7.28551 115.798 6.86174 115.798 6.38352C115.798 5.90057 115.701 5.47917 115.507 5.11932C115.318 4.75473 115.029 4.47301 114.641 4.27415C114.252 4.07055 113.76 3.96875 113.163 3.96875H111.089V16H108.014ZM125.038 3.99006V1.45455H136.984V3.99006H132.531V16H129.491V3.99006H125.038ZM138.952 16V1.45455H148.753V3.99006H142.027V7.45597H148.249V9.99148H142.027V13.4645H148.781V16H138.952ZM154.081 1.45455L157.015 6.41193H157.128L160.076 1.45455H163.549L159.11 8.72727L163.648 16H160.111L157.128 11.0355H157.015L154.032 16H150.509L155.061 8.72727L150.594 1.45455H154.081ZM164.941 3.99006V1.45455H176.887V3.99006H172.434V16H169.394V3.99006H164.941Z" fill="black"/>
<path d="M56.2173 253.832V239.287H62.0412C63.1113 239.287 64.0038 239.445 64.7188 239.763C65.4337 240.08 65.9711 240.52 66.331 241.084C66.6908 241.642 66.8707 242.286 66.8707 243.016C66.8707 243.584 66.7571 244.083 66.5298 244.514C66.3026 244.94 65.9901 245.291 65.5923 245.565C65.1993 245.835 64.7495 246.027 64.2429 246.141V246.283C64.7969 246.306 65.3153 246.462 65.7983 246.751C66.286 247.04 66.6813 247.445 66.9844 247.966C67.2874 248.482 67.4389 249.097 67.4389 249.812C67.4389 250.584 67.2472 251.273 66.8636 251.879C66.4848 252.48 65.9238 252.956 65.1804 253.307C64.437 253.657 63.5208 253.832 62.4318 253.832H56.2173ZM59.2926 251.318H61.7997C62.6567 251.318 63.2817 251.155 63.6747 250.828C64.0677 250.497 64.2642 250.056 64.2642 249.507C64.2642 249.105 64.1671 248.749 63.973 248.442C63.7789 248.134 63.5019 247.892 63.142 247.717C62.7869 247.542 62.3632 247.454 61.8707 247.454H59.2926V251.318ZM59.2926 245.373H61.5724C61.9938 245.373 62.3679 245.3 62.6946 245.153C63.026 245.002 63.2865 244.789 63.4759 244.514C63.67 244.239 63.767 243.91 63.767 243.527C63.767 243.001 63.58 242.578 63.206 242.256C62.8366 241.934 62.3111 241.773 61.6293 241.773H59.2926V245.373ZM82.8065 246.56C82.8065 248.146 82.5058 249.495 81.9045 250.608C81.3079 251.721 80.4935 252.57 79.4613 253.158C78.4338 253.74 77.2785 254.031 75.9954 254.031C74.7028 254.031 73.5427 253.738 72.5153 253.15C71.4878 252.563 70.6758 251.713 70.0792 250.601C69.4826 249.488 69.1843 248.141 69.1843 246.56C69.1843 244.973 69.4826 243.624 70.0792 242.511C70.6758 241.399 71.4878 240.551 72.5153 239.969C73.5427 239.382 74.7028 239.088 75.9954 239.088C77.2785 239.088 78.4338 239.382 79.4613 239.969C80.4935 240.551 81.3079 241.399 81.9045 242.511C82.5058 243.624 82.8065 244.973 82.8065 246.56ZM79.6886 246.56C79.6886 245.532 79.5347 244.666 79.2269 243.96C78.9239 243.255 78.4954 242.72 77.9414 242.355C77.3874 241.99 76.7388 241.808 75.9954 241.808C75.252 241.808 74.6033 241.99 74.0494 242.355C73.4954 242.72 73.0645 243.255 72.7567 243.96C72.4537 244.666 72.3022 245.532 72.3022 246.56C72.3022 247.587 72.4537 248.453 72.7567 249.159C73.0645 249.864 73.4954 250.4 74.0494 250.764C74.6033 251.129 75.252 251.311 75.9954 251.311C76.7388 251.311 77.3874 251.129 77.9414 250.764C78.4954 250.4 78.9239 249.864 79.2269 249.159C79.5347 248.453 79.6886 247.587 79.6886 246.56ZM83.8665 241.822V239.287H95.8125V241.822H91.3594V253.832H88.3196V241.822H83.8665ZM97.2259 241.822V239.287H109.172V241.822H104.719V253.832H101.679V241.822H97.2259ZM123.842 246.56C123.842 248.146 123.541 249.495 122.94 250.608C122.343 251.721 121.529 252.57 120.496 253.158C119.469 253.74 118.314 254.031 117.031 254.031C115.738 254.031 114.578 253.738 113.55 253.15C112.523 252.563 111.711 251.713 111.114 250.601C110.518 249.488 110.219 248.141 110.219 246.56C110.219 244.973 110.518 243.624 111.114 242.511C111.711 241.399 112.523 240.551 113.55 239.969C114.578 239.382 115.738 239.088 117.031 239.088C118.314 239.088 119.469 239.382 120.496 239.969C121.529 240.551 122.343 241.399 122.94 242.511C123.541 243.624 123.842 244.973 123.842 246.56ZM120.724 246.56C120.724 245.532 120.57 244.666 120.262 243.96C119.959 243.255 119.531 242.72 118.977 242.355C118.423 241.99 117.774 241.808 117.031 241.808C116.287 241.808 115.638 241.99 115.085 242.355C114.531 242.72 114.1 243.255 113.792 243.96C113.489 244.666 113.337 245.532 113.337 246.56C113.337 247.587 113.489 248.453 113.792 249.159C114.1 249.864 114.531 250.4 115.085 250.764C115.638 251.129 116.287 251.311 117.031 251.311C117.774 251.311 118.423 251.129 118.977 250.764C119.531 250.4 119.959 249.864 120.262 249.159C120.57 248.453 120.724 247.587 120.724 246.56ZM126.12 239.287H129.912L133.918 249.06H134.088L138.094 239.287H141.887V253.832H138.904V244.365H138.783L135.019 253.761H132.988L129.223 244.329H129.103V253.832H126.12V239.287ZM148.495 241.822V239.287H160.441V241.822H155.988V253.832H152.949V241.822H148.495ZM162.409 253.832V239.287H172.21V241.822H165.484V245.288H171.706V247.824H165.484V251.297H172.238V253.832H162.409ZM177.538 239.287L180.472 244.244H180.585L183.533 239.287H187.006L182.567 246.56L187.105 253.832H183.568L180.585 248.868H180.472L177.489 253.832H173.966L178.518 246.56L174.051 239.287H177.538ZM188.398 241.822V239.287H200.344V241.822H195.891V253.832H192.851V241.822H188.398Z" fill="black"/>
</svg>
