<svg width="256" height="256" viewBox="0 0 256 256" fill="none" xmlns="http://www.w3.org/2000/svg">
<path d="M141.514 101.843C141.514 102.149 141.523 102.413 141.425 102.707C141.308 103.057 141.165 103.422 141.157 103.796C141.15 104.113 141.102 104.533 140.965 104.822C140.383 106.051 144.158 105.823 144.58 105.789C146.423 105.641 148.235 105.225 150.095 105.239C150.979 105.246 151.8 105.458 152.655 105.653C153.305 105.802 153.953 105.841 154.611 105.908C155.435 105.992 156.216 106.415 157.008 106.107C157.094 106.073 157.349 106.057 157.412 106.001C157.652 105.785 157.71 105.351 157.75 105.057C157.857 104.259 157.723 103.471 157.723 102.677C157.723 102.157 157.087 102.048 156.647 102.025C155.791 101.98 154.96 102.032 154.118 102.141C151.949 102.42 149.778 102.498 147.593 102.498C146.693 102.498 145.809 102.677 144.914 102.677C144.371 102.677 143.756 102.62 143.289 102.319C142.995 102.131 142.62 101.991 142.289 101.915C142.147 101.883 141.987 101.902 141.842 101.902C141.667 101.902 141.571 102.441 141.527 102.571C141.352 103.096 141.3 103.626 141.19 104.163C141.167 104.273 141.056 104.548 141.157 104.498C141.285 104.434 141.56 103.844 141.647 103.723C141.939 103.314 142.216 102.894 142.514 102.488C142.574 102.407 142.742 102.063 142.852 102.031C142.938 102.007 142.745 103.379 142.719 103.485C142.671 103.685 142.617 103.884 142.567 104.084C142.507 104.325 142.868 103.689 143.004 103.481C143.059 103.397 143.6 102.681 143.6 102.75C143.6 103.249 143.328 103.87 143.153 104.336C143.142 104.366 143.022 104.548 143.103 104.438C143.419 104.014 143.737 103.592 144.05 103.167C144.3 102.828 144.546 102.487 144.808 102.157C144.877 102.071 144.971 101.897 144.971 102.091C144.971 102.773 144.642 103.421 144.461 104.067C144.459 104.074 144.401 104.323 144.474 104.236C144.759 103.899 145.011 103.53 145.295 103.19C145.555 102.878 145.824 102.572 146.096 102.27C146.272 102.074 146.212 102.323 146.182 102.462C145.996 103.344 145.492 104.127 145.282 104.988C145.258 105.084 145.253 105.096 145.308 105.021C145.484 104.781 145.677 104.552 145.861 104.319C145.902 104.267 146.398 103.692 146.401 103.75C146.421 104.112 146.27 104.452 146.225 104.806C146.214 104.892 146.431 104.624 146.454 104.604C146.809 104.277 147.15 103.935 147.507 103.61C147.608 103.518 148.032 103.004 148.006 103.379C147.972 103.875 147.828 104.399 147.665 104.869C147.621 104.996 147.789 104.721 147.798 104.71C148.101 104.302 148.392 103.886 148.712 103.491C148.8 103.383 148.967 103.099 149.109 103.048C149.267 102.99 149.053 103.676 149.046 103.697C148.888 104.163 148.319 105.493 148.632 105.114C149.292 104.315 149.983 103.525 150.738 102.813C151.166 102.408 151.059 102.754 150.976 103.18C150.899 103.576 150.766 103.95 150.638 104.332C150.586 104.49 150.46 104.735 150.46 104.905C150.46 104.99 150.62 104.838 150.685 104.782C151.057 104.467 151.448 104.178 151.797 103.836C151.88 103.754 152.125 103.412 152.261 103.412C152.376 103.412 152.244 104.207 152.234 104.259C152.161 104.651 152.032 105.035 152.006 105.435C151.982 105.806 152.345 105.234 152.406 105.163C152.74 104.777 153.075 104.39 153.419 104.014C153.519 103.906 153.793 103.508 153.956 103.478C154.01 103.468 153.904 104.215 153.883 104.276C153.828 104.432 153.891 104.322 153.936 104.246C154.163 103.86 154.403 103.48 154.671 103.12C154.725 103.047 154.933 102.692 155.035 102.667C155.067 102.659 154.79 103.583 154.77 103.63C154.622 103.977 154.465 104.321 154.34 104.677C154.235 104.975 154.706 104.279 154.744 104.226C154.959 103.93 155.19 103.66 155.449 103.402C155.617 103.234 155.75 103.11 155.75 103.442C155.75 103.767 155.713 104.101 155.684 104.425C155.68 104.472 155.652 104.959 155.664 104.948C156.104 104.552 156.247 103.862 156.671 103.438C156.736 103.373 156.71 103.754 156.71 103.776C156.707 104.128 156.658 104.463 156.604 104.809C156.6 104.836 156.526 105.094 156.601 104.981C156.768 104.731 156.91 104.475 157.091 104.233C157.103 104.217 157.333 103.889 157.353 103.922C157.428 104.051 157.368 104.379 157.366 104.524C157.364 104.657 157.346 104.775 157.31 104.902C157.263 105.063 157.399 104.576 157.465 104.422C157.607 104.086 157.776 103.765 157.889 103.418C157.917 103.332 158.082 102.975 157.922 103.233C157.42 104.041 156.991 104.953 156.389 105.693C156.28 105.827 156.306 105.282 156.306 105.279C156.353 104.607 156.503 103.937 156.697 103.293C156.706 103.263 156.936 102.608 156.79 102.73C156.309 103.129 155.936 103.768 155.558 104.259C155.253 104.656 154.983 105.091 154.638 105.455C154.347 105.762 154.394 105.466 154.459 105.206C154.591 104.679 154.779 104.172 155.015 103.683C155.096 103.516 155.481 102.908 155.048 103.266C154.156 104.004 153.431 104.991 152.463 105.637C152.203 105.81 152.342 105.16 152.353 105.1C152.504 104.34 152.874 103.646 153.181 102.942C153.278 102.718 153.388 102.483 153.453 102.246C153.52 102 153.027 102.529 152.827 102.687C152.497 102.947 152.186 103.232 151.85 103.485C151.669 103.621 151.567 103.675 151.599 103.399C151.639 103.046 151.764 102.718 151.906 102.395C151.916 102.374 152.103 101.913 152.079 101.919C151.86 101.967 151.555 102.443 151.413 102.584C150.921 103.076 150.412 103.553 149.897 104.021C149.857 104.057 149.568 104.383 149.48 104.332C149.39 104.281 149.679 103.778 149.708 103.723C149.788 103.573 150.106 103.249 149.937 103.266C149.771 103.283 149.363 103.886 149.248 104.001C148.991 104.258 148.726 104.499 148.44 104.723C148.166 104.937 148.212 104.723 148.301 104.461C148.487 103.918 148.781 103.411 149.056 102.909C149.18 102.682 149.616 102.087 149.387 102.207C149.055 102.38 148.73 102.772 148.45 103.015C147.928 103.468 147.434 103.952 146.924 104.418C146.442 104.859 146.606 104.417 146.685 104.061C146.718 103.912 146.376 104.056 146.351 104.067C145.841 104.296 145.398 104.689 144.954 105.021C144.789 105.144 144.5 105.481 144.292 105.527C144.229 105.541 144.255 105.294 144.255 105.266C144.255 104.838 144.248 104.864 143.772 104.895C143.212 104.932 142.649 105.003 142.107 105.15C141.935 105.196 141.445 105.452 141.256 105.349C140.923 105.167 141.867 103.521 141.964 103.313C142.026 103.18 142.078 102.954 142.186 102.846C142.421 102.611 141.798 103.385 141.607 103.657C141.431 103.907 141.257 104.155 141.064 104.392C140.872 104.626 141.107 104.049 141.123 104.008C141.296 103.581 141.524 103.184 141.743 102.779C141.797 102.679 141.947 102.188 142.077 102.15C142.143 102.131 142.038 102.475 142.037 102.478C141.922 102.872 141.728 103.234 141.527 103.591C141.263 104.061 141.261 103.775 141.279 103.362C141.283 103.284 141.477 102.344 141.56 102.644C141.621 102.862 141.545 103.612 141.769 103.713C142.021 103.827 142.417 103.645 142.646 103.558C143.068 103.396 143.466 103.184 143.871 102.988C144.038 102.908 144.021 102.986 144.014 103.15C143.993 103.608 143.934 104.063 143.842 104.511C143.804 104.694 143.782 104.881 143.732 105.061C143.655 105.34 144.148 104.655 144.341 104.438C144.75 103.98 145.152 103.517 145.613 103.111C145.746 102.993 146.098 102.564 146.305 102.564C146.437 102.564 146.079 104.049 146.056 104.213C146.046 104.289 145.942 104.584 146.083 104.471C146.421 104.199 146.734 103.887 147.043 103.584C147.2 103.431 147.374 103.216 147.586 103.134C147.775 103.06 147.712 103.485 147.712 103.561C147.712 103.985 147.692 104.406 147.665 104.829C147.657 104.967 147.525 105.478 147.606 105.604C147.628 105.637 149.671 103.956 149.834 103.826C150.045 103.656 150.245 103.46 150.486 103.332C150.629 103.257 150.571 103.448 150.572 103.551C150.575 103.764 150.558 104.773 150.817 104.845C151.008 104.898 151.286 104.74 151.446 104.663C151.955 104.421 152.423 104.094 152.916 103.822C153.093 103.725 153.552 103.293 153.552 103.697C153.552 104.085 153.452 104.413 153.952 104.213C154.266 104.087 154.549 103.891 154.836 103.716C154.906 103.674 155.186 103.429 155.28 103.452C155.478 103.498 154.791 105.254 154.721 105.461C154.514 106.064 155.164 105.086 155.267 104.955C155.511 104.643 155.638 104.329 155.638 104.895C155.638 104.998 155.643 106.144 155.697 106.12C156.085 105.948 156.291 105.227 156.498 104.892C156.753 104.479 157.217 104.186 157.545 103.75" stroke="black" stroke-width="3" stroke-linecap="round"/>
<path d="M99.4417 101.247C99.4417 102.099 99.3392 103.019 99.445 103.865C99.4892 104.219 99.6965 104.397 100.051 104.405C100.84 104.423 101.637 104.465 102.425 104.465C104.41 104.465 106.466 104.32 108.44 104.537C109.331 104.635 110.191 104.703 111.089 104.703C111.505 104.703 111.976 104.645 112.387 104.716C113.212 104.86 114.041 104.822 114.88 104.822C115.661 104.822 117.102 105.088 117.498 104.196C117.721 103.696 117.558 103.039 117.558 102.498C117.558 102.24 117.558 101.982 117.558 101.723C117.558 101.35 117.554 101.408 117.19 101.333C116.582 101.207 115.969 101.141 115.353 101.068C114.67 100.986 114.03 100.764 113.36 100.621C112.379 100.412 111.46 100.174 110.453 100.174C109.706 100.174 108.948 100.136 108.202 100.177C107.597 100.211 107.005 100.501 106.401 100.578C105.666 100.671 104.952 100.86 104.209 100.935C103.454 101.012 102.706 101.008 101.948 101.008C101.663 101.008 101.217 100.919 100.978 101.114C100.694 101.347 100.479 101.749 100.399 102.111C100.285 102.622 100.111 103.446 100.306 103.951C100.404 104.207 100.62 103.727 100.673 103.65C100.986 103.203 101.316 102.77 101.604 102.306C101.772 102.034 101.917 101.712 102.123 101.465C102.278 101.28 102.243 102.3 102.243 102.402C102.243 102.493 102.167 103.411 102.276 103.442C102.381 103.472 102.923 102.701 102.991 102.617C103.113 102.466 103.242 102.195 103.424 102.104C103.534 102.049 103.484 102.618 103.481 102.657C103.44 103.199 103.191 103.776 103.259 104.322C103.265 104.371 103.565 103.982 103.593 103.948C103.864 103.623 104.124 103.291 104.381 102.955C104.405 102.923 104.859 102.393 104.865 102.498C104.885 102.863 104.804 103.256 104.759 103.617C104.685 104.209 105.129 103.496 105.295 103.319C105.763 102.822 106.341 102.349 106.765 101.819C106.783 101.797 106.772 101.872 106.772 101.882C106.772 102.093 106.777 102.303 106.745 102.511C106.704 102.785 106.622 103.052 106.566 103.322C106.547 103.415 106.458 103.661 106.533 103.604C106.628 103.532 106.732 103.334 106.811 103.246C107.123 102.902 107.44 102.564 107.745 102.213C107.812 102.136 108.301 101.487 108.248 101.836C108.136 102.573 107.809 103.301 107.553 103.998C107.527 104.069 107.384 104.339 107.427 104.425C107.441 104.452 107.463 104.377 107.48 104.352C107.608 104.171 107.748 103.998 107.887 103.826C108.374 103.223 108.903 102.657 109.38 102.048C109.463 101.943 109.45 102.022 109.41 102.101C109.235 102.451 109.041 102.794 108.857 103.14C108.631 103.568 107.927 104.836 108.159 104.412C108.584 103.632 109.411 102.99 110.003 102.336C110.058 102.275 110.552 101.66 110.394 102.074C110.136 102.745 109.768 103.381 109.46 104.031C109.28 104.411 109.331 104.304 109.579 104.028C110.343 103.178 111.068 102.301 111.883 101.498C112.422 100.968 111.969 101.847 111.857 102.094C111.526 102.825 111.208 103.554 110.92 104.302C110.899 104.356 111.018 104.243 111.059 104.203C111.437 103.836 111.856 103.514 112.241 103.154C112.33 103.07 113.79 101.775 113.79 101.776C113.948 102.144 113.35 103.009 113.214 103.349C113.163 103.476 113.118 103.606 113.065 103.733C113.061 103.744 113.253 103.467 113.294 103.412C113.629 102.959 114.075 102.367 114.565 102.068C114.692 101.99 114.491 102.36 114.419 102.491C114.156 102.974 113.919 103.466 113.694 103.968C113.658 104.049 113.263 105.048 113.486 104.756C114.209 103.812 115.101 102.944 115.969 102.134C116.148 101.967 116.727 101.344 116.528 101.972C116.173 103.091 115.623 104.128 115.125 105.186C115.123 105.19 114.938 105.529 115.022 105.445C115.35 105.117 115.61 104.717 115.903 104.359C116.381 103.771 116.875 103.184 117.439 102.677C117.575 102.554 117.335 103.15 117.32 103.187C117.208 103.453 116.973 104.285 117.025 104.001C117.103 103.573 117.44 103.129 117.664 102.763C117.706 102.694 117.8 102.46 117.882 102.425C117.946 102.398 117.82 102.945 117.816 102.955C117.622 103.538 117.306 104.067 117.061 104.627C116.837 105.14 117.626 103.658 117.939 103.193C117.981 103.131 118.458 102.48 118.452 102.571C118.419 103.04 118.008 103.613 117.773 104.004C117.556 104.367 117.498 104.505 117.498 104.008C117.498 103.235 117.605 102.377 117.439 101.617C117.28 100.893 116.474 101.393 116.071 101.634C115.281 102.107 114.538 102.67 113.81 103.233C113.422 103.534 113.053 103.9 112.628 104.15C112.191 104.407 112.709 103.418 112.764 103.313C112.812 103.221 113.017 102.901 112.979 102.786C112.953 102.706 112.026 103.327 112.009 103.339C110.881 104.131 109.858 105.098 108.702 105.845C108.064 106.257 109.054 104.85 109.142 104.729C109.345 104.45 109.559 104.181 109.771 103.908C109.781 103.896 109.992 103.632 109.94 103.64C109.256 103.745 108.569 104.333 107.954 104.633C107.364 104.921 107.976 103.855 108.083 103.67C108.246 103.386 108.442 103.121 108.609 102.839C108.743 102.613 108.48 102.738 108.361 102.789C107.345 103.233 106.424 103.882 105.424 104.365C105.399 104.378 104.964 104.634 104.937 104.544C104.862 104.285 105.134 103.796 105.229 103.574C105.264 103.491 105.889 102.225 105.838 102.213C105.618 102.165 105.244 102.386 105.063 102.465C104.455 102.73 103.875 103.049 103.282 103.346C103.06 103.456 102.828 103.583 102.587 103.65C102.377 103.709 102.517 103.268 102.534 103.193C102.651 102.69 102.856 102.208 103.07 101.74C103.141 101.585 103.357 101.277 103.348 101.094C103.348 101.088 101.841 101.938 101.719 102.011C101.396 102.207 101.065 102.388 100.746 102.591C100.629 102.665 100.622 102.65 100.67 102.518C100.721 102.377 100.792 102.246 100.869 102.117C100.916 102.038 100.991 101.777 100.991 101.869C100.991 102.436 100.581 103.096 100.395 103.617C100.369 103.69 100.073 104.688 100.101 104.276C100.126 103.898 100.275 103.571 100.392 103.22C100.509 102.869 100.045 103.091 99.7993 103.021C99.5315 102.945 99.5959 102.62 99.4086 102.518C99.3187 102.469 98.8598 104.002 98.8226 104.18C98.7116 104.71 98.724 104.187 98.7266 103.942C98.7305 103.567 98.801 103.273 99.0246 102.975" stroke="black" stroke-width="3" stroke-linecap="round"/>
<path d="M140.238 100.562C142.963 100.562 145.69 100.473 148.401 100.747C150.138 100.922 151.922 100.812 153.668 100.812C155.406 100.812 157.154 100.895 158.898 100.895" stroke="#050505" stroke-width="3" stroke-linecap="round"/>
<path d="M139.405 107.059C141.765 107.059 144.112 107.051 146.467 107.226C148.178 107.353 149.871 107.393 151.586 107.393C152.346 107.393 153.104 107.506 153.853 107.624C154.528 107.73 155.213 107.669 155.88 107.791C156.965 107.988 158.21 107.809 159.314 107.809" stroke="#050505" stroke-width="3" stroke-linecap="round"/>
<path d="M98.0033 99.7287C99.9717 99.7287 101.94 99.7287 103.909 99.7287C105.535 99.7287 107.207 99.6216 108.828 99.775C110.026 99.8883 111.21 99.9786 112.415 99.9786C113.335 99.9786 114.174 99.8193 115.08 99.7287C115.749 99.6619 116.412 99.5355 117.08 99.4603C117.46 99.4174 117.864 99.4236 118.227 99.2937C118.712 99.1204 119.055 99.0623 119.579 99.0623" stroke="#050505" stroke-width="3" stroke-linecap="round"/>
<path d="M98.0033 106.726C100.559 106.726 103.116 106.726 105.672 106.726C108.014 106.726 110.328 106.476 112.665 106.476C115.412 106.476 118.161 106.31 120.912 106.31" stroke="#050505" stroke-width="3" stroke-linecap="round"/>
<path d="M124.327 97.3129C122.968 97.6112 122.375 99.0938 121.953 100.265C121.67 101.051 121.495 101.612 121.495 102.459C121.495 103.799 121.567 105.005 121.911 106.31C122.479 108.46 124.49 109.378 126.535 109.642C128.503 109.896 130.507 109.808 132.491 109.808C133.573 109.808 134.332 109.743 134.823 108.679C135.335 107.57 135.894 106.493 136.489 105.43C137.542 103.55 137.707 101.221 136.369 99.4602C136.021 99.0029 135.259 98.6343 134.777 98.3125C134.021 97.8083 133.218 97.4267 132.407 97.0213C131.679 96.657 130.947 96.295 130.158 96.0818C129.079 95.7901 127.933 96.0391 126.909 96.3965C125.304 96.957 123.698 97.4852 122.952 99.1409C122.582 99.9638 122.328 100.923 122.328 101.83C122.328 102.262 122.328 102.694 122.328 103.126C122.328 103.253 122.256 103.68 122.346 103.792C122.475 103.953 122.445 104.34 122.494 104.56C122.57 104.899 122.714 105.249 122.869 105.56C123.036 105.894 123.129 106.303 123.369 106.597C123.49 106.745 123.691 107.042 123.744 107.226C123.82 107.492 124.139 107.736 124.327 107.929C124.745 108.36 125.072 108.716 125.577 109.059C126.179 109.468 126.796 109.947 127.474 110.225C128.233 110.535 128.912 110.841 129.737 110.896C130.377 110.939 130.903 110.947 131.537 110.896C132.596 110.811 133.131 110.38 133.907 109.706C134.727 108.995 135.486 108.004 136.054 107.078C136.993 105.547 137.32 103.594 136.781 101.858C136.463 100.832 136.217 99.7302 135.568 98.854C134.834 97.8626 133.593 97.4795 132.407 97.4795C131.54 97.4795 130.673 97.4795 129.806 97.4795C128.052 97.4795 126.951 98.1626 125.725 99.414C124.287 100.881 123.161 102.971 123.161 105.051C123.161 105.846 123.562 106.189 124.336 106.347C125.384 106.56 126.798 106.654 127.821 106.3C128.841 105.947 129.615 105.099 130.306 104.31C130.841 103.7 130.989 103.007 130.889 102.209C130.7 100.697 129.002 100.033 127.678 100.497C125.887 101.123 125.551 104.036 125.877 105.597C126.308 107.653 129.588 106.485 130.69 105.893C131.958 105.213 132.287 103.537 131.704 102.293C131.34 101.515 129.538 100.356 128.927 101.413C128.669 101.861 128.559 102.59 128.589 103.098C128.625 103.684 129.348 103.793 129.802 103.838C131.097 103.968 132.465 103.911 133.745 103.681C134.299 103.582 136.341 103.264 135.388 102.311C134.782 101.705 133.578 101.349 132.741 101.534C131.636 101.777 130.823 102.977 130.408 103.94C130.062 104.744 129.999 105.403 131.075 105.291C132.011 105.194 133.057 104.261 132.87 103.246C132.705 102.347 131.573 101.81 130.723 102.015C129.801 102.237 129.361 103.396 129.08 104.185C128.973 104.487 128.915 105.347 128.404 105.296C127.297 105.185 127.722 103.37 128.057 102.825C128.464 102.162 129.924 101.055 130.649 101.945C131.115 102.517 131.113 103.392 130.473 103.81C129.41 104.506 127.694 104.003 126.696 103.394C126.143 103.056 125.966 102.333 126.743 102.246C127.667 102.144 128.639 102.927 128.872 103.81C129.365 105.681 125.016 105.101 126.437 102.811C127.258 101.488 128.899 100.904 130.39 100.904C131.352 100.904 131.631 101.601 130.848 102.228C130.058 102.86 128.524 103.24 127.844 102.256C126.811 100.758 127.788 98.7716 128.955 97.7016C129.251 97.4304 129.691 97.0922 130.121 97.1C130.572 97.1082 130.488 97.92 130.473 98.1829C130.354 100.272 129.149 102.57 127.742 104.088C126.924 104.971 125.854 105.301 124.669 105.301C124.104 105.301 123.438 105.212 123.499 104.519C123.56 103.816 124.66 103.328 125.243 103.2C126.744 102.869 126.444 105.52 126.4 106.407C126.353 107.359 126.023 108.06 125.04 108.226C124.083 108.386 122.999 108.29 122.43 107.393C122.242 107.097 121.884 106.271 122.115 105.912C122.46 105.375 123.476 105.546 123.975 105.643C124.816 105.806 125.279 106.422 125.91 106.93C126.486 107.394 127.284 107.853 128.039 107.888C129.766 107.968 130.584 105.847 131.246 104.579C131.877 103.369 132.416 102.107 133.102 100.927C133.236 100.696 133.483 100.08 133.782 99.9878C134.359 99.8103 136.489 101.082 135.989 101.645C135.85 101.802 135.411 101.942 135.258 101.728C135.248 101.714 135.137 102.181 135.101 102.265C134.681 103.226 133.923 104.083 133.194 104.819C132.512 105.509 131.756 106.175 130.88 106.606C130.756 106.667 130.278 106.967 130.112 106.874C129.856 106.732 130.329 105.787 130.491 105.662C131.115 105.181 131.656 105.866 130.825 106.143" stroke="white" stroke-width="3" stroke-linecap="round"/>
<path d="M132.074 99.0623C131.987 99.5085 132.019 99.5149 131.866 99.9416C131.806 100.109 131.728 100.264 131.662 100.427C131.623 100.526 131.723 100.211 131.806 100.145C131.831 100.125 131.945 99.9438 131.972 100.016C132.168 100.529 131.816 101.419 131.695 101.904C131.508 102.651 131.301 103.392 131.176 104.153C131.129 104.444 131.331 104.403 131.584 104.389C131.806 104.377 132.814 103.999 132.824 104.347C132.83 104.565 132.534 105.665 132.717 105.764C132.982 105.906 133.466 105.735 133.736 105.685C133.804 105.672 134.622 105.465 134.619 105.532C134.602 106.053 133.83 106.779 133.541 107.17C133.368 107.405 132.778 107.946 132.778 108.272C132.778 108.303 134.117 107.735 133.421 107.735C133.01 107.735 132.665 107.86 132.292 108.013C131.763 108.228 132.476 107.865 132.611 107.772C133.037 107.48 133.407 107.113 133.768 106.745C133.979 106.529 133.972 106.483 133.694 106.606C133.478 106.701 133.085 107.238 133.111 107.004C133.135 106.783 133.566 106.48 133.731 106.361C134.271 105.97 133.646 106.762 133.509 106.958C133.071 107.583 133.557 107.349 133.856 106.981C134.077 106.708 133.69 106.975 133.601 107.027C133.186 107.272 132.75 107.504 132.361 107.791C131.954 108.09 132.425 107.775 132.574 107.726" stroke="white" stroke-width="3" stroke-linecap="round"/>
<path d="M126.921 94.8663C125.598 94.8663 124.725 94.9546 123.545 95.5684C122.782 95.965 122.333 96.5177 121.751 97.1004C120.626 98.2248 119.772 100.502 119.772 102.086C119.772 103.1 119.713 104.101 120.027 105.079C120.32 105.992 120.485 107.151 120.949 107.987C122.459 110.705 125.603 112.217 128.581 112.867C132.583 113.741 136.687 111.193 138.467 107.633C139.33 105.907 139.666 103.744 139.808 101.824C139.921 100.301 139.523 98.9588 138.354 97.9302C137.025 96.7604 135.448 96.2316 133.843 95.533C133.022 95.1754 132.048 94.508 131.134 94.4833C129.448 94.4377 127.845 93.9726 126.155 93.9726" stroke="#777373" stroke-width="3" stroke-linecap="round"/>
<path d="M130.174 100.534C129.169 100.376 128.203 100.514 127.396 101.159C126.874 101.577 126.273 102.306 126.273 103.01C126.273 103.651 126.414 104.265 126.701 104.839C127.029 105.495 127.914 105.66 128.55 105.771C129.861 105.999 131.924 106.052 132.227 104.381C132.304 103.958 132.282 103.521 132.282 103.092C132.282 102.841 132.25 102.413 132.013 102.26C131.816 102.134 131.686 101.917 131.475 101.799C131.304 101.704 131.093 101.625 130.937 101.52" stroke="#3E7DDC" stroke-width="3" stroke-linecap="round"/>
<path d="M129.591 102.283C129.192 102.283 128.527 102.257 128.301 102.641C128.168 102.867 127.944 103.375 128.313 103.538C128.718 103.718 129.124 103.852 129.569 103.852C129.945 103.852 129.995 103.538 129.995 103.224" stroke="#2C5492" stroke-width="3" stroke-linecap="round"/>
</svg>
