<svg width="256" height="256" viewBox="0 0 256 256" fill="none" xmlns="http://www.w3.org/2000/svg">
<path d="M108.818 99.7498C108.475 99.6828 108.561 99.7139 108.499 99.999C108.405 100.426 108.273 100.823 108.209 101.258C108.134 101.764 108.184 102.307 108.184 102.818C108.184 103.017 108.179 103.011 108.027 102.859C107.7 102.531 107.391 102.175 107.123 101.797C107.021 101.654 107.01 101.419 106.977 101.25C106.93 101.014 106.9 100.336 106.792 100.551C106.767 100.601 106.84 100.88 106.847 100.933C106.911 101.449 106.984 101.963 107.039 102.48C107.158 103.599 107.235 104.75 107.627 105.816C107.949 106.693 108.54 107.482 109.059 108.25C109.491 108.89 109.96 109.486 110.576 109.959C111.649 110.784 113.229 110.845 114.532 110.755C115.431 110.693 116.33 110.703 117.229 110.62C117.751 110.572 118.287 110.474 118.811 110.474" stroke="white" stroke-width="3" stroke-linecap="round"/>
<path d="M125.635 104.868C125.635 105.242 125.635 105.615 125.635 105.989C125.635 106.3 125.692 106.654 125.489 106.915C125.121 107.388 124.789 107.824 124.365 108.259C123.924 108.711 123.348 109.144 122.819 109.488C122.42 109.747 121.956 110.012 121.492 110.133C120.291 110.445 119.13 110.879 117.933 111.205C116.745 111.528 115.498 111.595 114.275 111.595C113.387 111.595 112.764 111.051 112.222 110.379C111.083 108.968 110.534 107.218 110.015 105.504C109.696 104.452 109.42 103.388 109.184 102.314C109.082 101.851 108.908 101.408 108.796 100.947C108.758 100.787 108.689 100.317 108.775 100.167C108.977 99.8123 109.34 100.816 109.4 101.22C109.605 102.6 109.516 104.051 109.842 105.41C109.879 105.563 109.953 105.934 110.123 106.016C110.258 106.081 110.609 105.005 110.633 104.944C110.899 104.246 111.124 103.534 111.391 102.837C111.473 102.623 111.608 102.167 111.634 102.669C111.73 104.512 111.675 106.36 111.694 108.204C111.695 108.322 111.699 108.346 111.729 108.185C111.821 107.701 111.9 107.212 111.981 106.726C112.247 105.137 112.445 103.553 112.582 101.949C112.609 101.634 112.641 101.319 112.666 101.004C112.674 100.908 112.616 100.689 112.707 100.719C112.855 100.769 112.802 102.44 112.804 102.545C112.825 103.627 112.839 104.717 112.804 105.8C112.797 106.024 112.772 106.25 112.772 106.474C112.772 106.579 112.839 106.274 112.869 106.173C113.119 105.345 113.423 104.531 113.709 103.714C113.722 103.677 114.058 102.875 114.083 102.934C114.109 102.999 114.119 103.239 114.12 103.265C114.141 103.756 114.131 104.249 114.131 104.741C114.131 105.723 114.158 106.709 114.107 107.69C114.103 107.767 114.003 108.479 114.153 108.074C114.515 107.1 114.864 106.121 115.187 105.133C115.335 104.682 115.426 104.079 115.686 103.671C115.749 103.572 115.738 104.347 115.737 104.405C115.726 105.055 115.697 105.709 115.618 106.355C115.585 106.628 115.494 106.912 115.729 106.482C116.439 105.186 117.195 103.915 117.917 102.626C118.129 102.248 118.362 101.708 118.643 101.353C118.725 101.25 118.604 101.613 118.57 101.74C118.288 102.805 117.952 103.86 117.625 104.911C117.591 105.019 117.047 106.439 117.181 106.528C117.32 106.621 119.102 104.376 119.217 104.24C119.978 103.336 120.714 102.407 121.538 101.559C121.556 101.54 121.786 101.26 121.86 101.277C122.037 101.319 121.906 101.641 121.887 101.821C121.765 103.007 121.438 104.168 121.159 105.323C121.037 105.826 120.851 106.347 120.782 106.861C120.739 107.191 121.583 106.337 121.638 106.282C122.034 105.888 122.384 105.443 122.786 105.058C123.073 104.783 122.907 105.573 122.895 105.67C122.838 106.117 122.723 106.541 122.635 106.98C122.559 107.359 123.108 106.676 123.144 106.639C123.579 106.181 123.997 105.709 124.422 105.242C124.539 105.113 124.691 104.902 124.687 105.215C124.682 105.79 124.451 106.34 124.371 106.905C124.362 106.965 124.514 106.832 124.541 106.812C124.692 106.704 124.822 106.584 124.993 106.506C125.238 106.397 125.294 107.55 125.294 107.774C125.294 108.198 125.312 108.604 125.207 109.011C124.95 110.011 123.452 109.851 122.662 109.9C120.758 110.016 118.94 110.717 117.018 110.717C116.68 110.717 116.363 110.731 116.049 110.588C115.584 110.376 115.156 110.077 114.727 109.802C114.661 109.759 113.64 109.159 113.833 109.049C114.35 108.755 115.173 108.743 115.737 108.676C117.152 108.508 118.584 108.432 120.008 108.38C120.438 108.365 120.871 108.329 121.302 108.329C121.628 108.329 120.651 108.327 120.325 108.332C119.634 108.341 118.937 108.367 118.25 108.451C118.119 108.467 117.657 108.556 118.088 108.494C118.281 108.467 120.074 108.263 119.932 107.988C119.804 107.739 119.595 107.512 119.434 107.289C118.953 106.625 118.503 105.941 118.066 105.247C117.186 103.848 116.382 102.384 115.353 101.085C115.118 100.788 114.84 100.521 114.608 100.224C114.581 100.189 114.693 100.25 114.733 100.27C114.99 100.396 115.248 100.52 115.507 100.643C116.275 101.009 117.038 101.386 117.812 101.738C117.835 101.748 118.531 102.042 118.21 101.979C117.374 101.815 116.566 101.412 115.767 101.128C115.182 100.92 114.588 100.723 113.988 100.562C113.956 100.554 113.861 100.542 113.893 100.532C114 100.502 114.274 100.568 114.353 100.584C115.763 100.871 117.122 101.471 118.416 102.084C119.061 102.39 119.697 102.724 120.317 103.081C120.352 103.101 120.498 103.173 120.344 103.146C119.996 103.084 119.646 102.946 119.32 102.821C117.131 101.978 115.072 100.731 112.799 100.113C112.5 100.031 112.214 99.9675 111.938 99.8256C111.706 99.7065 111.505 99.594 111.255 99.5061C111.147 99.468 110.84 99.318 110.952 99.3436C112.03 99.5907 113.097 99.9557 114.153 100.281C117.008 101.159 119.949 101.967 122.678 103.2C122.911 103.305 122.999 103.406 123.247 103.406" stroke="white" stroke-width="3" stroke-linecap="round"/>
<path d="M151.47 99.5548C151.47 100.764 151.47 101.972 151.47 103.181C151.47 104.043 151.338 104.989 150.994 105.783C150.729 106.392 150.495 107.048 149.956 107.476C149.18 108.093 148.436 108.762 147.592 109.282C147.17 109.542 146.784 109.796 146.303 109.938C145.679 110.121 145.057 110.242 144.413 110.328C142.931 110.524 141.464 110.732 139.964 110.663C139.288 110.633 138.591 110.412 137.979 110.133C137.464 109.897 136.859 109.698 136.408 109.353C135.792 108.881 135.212 108.33 134.664 107.782C134.355 107.473 134.035 107.175 133.727 106.867C133.529 106.669 133.532 106.57 133.532 106.293C133.532 105.896 133.921 105.644 134.239 105.456C135.018 104.994 135.951 104.881 136.828 104.722C137.53 104.594 138.199 104.445 138.883 104.234C139.587 104.017 140.317 103.869 141.001 103.59C142.167 103.114 143.226 102.436 144.305 101.797C144.997 101.387 145.728 101.104 146.449 100.763C147.062 100.473 147.759 100.362 148.388 100.102C148.865 99.9052 149.404 99.8961 149.91 99.8961C150.5 99.8961 150.852 99.9862 151.031 100.589C151.416 101.884 150.975 103.277 151.202 104.592C151.259 104.919 151.226 105.268 151.226 105.599C151.226 105.628 151.204 105.838 151.254 105.838C151.409 105.838 151.686 105.33 151.763 105.234C151.99 104.95 152.233 104.68 152.396 104.354C152.521 104.105 152.238 104.704 152.201 104.76C151.643 105.613 151.057 106.432 150.409 107.219C150.105 107.587 149.749 107.909 149.45 108.28C149.238 108.544 149.012 108.746 148.713 108.911C148.515 109.021 148.27 109.123 148.058 109.206C147.658 109.365 147.301 109.828 146.996 110.122C146.582 110.521 146.116 110.894 145.667 111.254C145.269 111.572 144.799 112.03 144.307 112.202C144.087 112.279 143.76 112.26 143.525 112.275C143.239 112.293 142.965 112.284 142.696 112.18C142.41 112.069 142.102 112.072 141.808 111.985C141.465 111.883 141.125 111.764 140.784 111.655C140.155 111.453 139.531 111.332 138.891 111.181C138.213 111.02 137.594 110.936 136.944 110.669C136.146 110.341 135.353 109.959 134.615 109.51C134.454 109.411 134.335 109.297 134.212 109.158C134.116 109.05 133.862 108.921 133.808 108.795C133.657 108.443 134.446 109.219 134.751 109.45C135.364 109.916 135.974 110.371 136.603 110.815C137.405 111.381 138.256 111.851 139.238 112.009C140.691 112.243 142.073 111.877 143.468 111.5C144.404 111.247 145.264 110.82 146.184 110.533C146.941 110.298 147.666 110.007 148.372 109.645C149.286 109.178 150.053 108.441 150.631 107.598C151.051 106.985 151.289 106.296 151.557 105.61C151.685 105.282 151.893 104.959 151.996 104.624C152.064 104.401 152.141 104.208 152.274 104.015C152.442 103.773 152.371 103.943 152.277 104.131C151.828 105.038 151.395 105.96 150.907 106.845C150.335 107.882 149.506 108.835 148.694 109.694C148.185 110.234 147.609 110.581 147.013 111.01C146.84 111.134 146.671 111.264 146.498 111.389C146.17 111.626 145.683 111.546 145.307 111.546C143.502 111.546 141.818 111.132 140.118 110.547C139.305 110.267 138.645 109.823 137.957 109.315C137.341 108.859 136.515 108.359 136.088 107.695C135.687 107.071 138.129 106.24 138.39 106.135C139.878 105.54 141.471 105.027 143.091 105.014C143.211 105.013 143.351 105.008 143.465 105.052C143.595 105.102 143.225 105.201 143.091 105.239C142.408 105.435 141.691 105.553 140.985 105.626C140.722 105.654 139.562 105.864 139.487 105.404C139.443 105.137 139.704 104.891 139.855 104.738C140.294 104.297 140.813 103.94 141.331 103.603C142.972 102.535 144.773 101.607 146.617 100.941C147.307 100.693 148.03 100.524 148.754 100.416C149.066 100.37 149.068 100.442 148.87 100.681C148.074 101.65 147.016 102.411 146.106 103.268C146.031 103.337 145.57 103.702 145.946 103.655C146.576 103.576 147.193 103.327 147.798 103.146C148.197 103.027 148.698 102.821 149.125 102.842C149.438 102.858 148.828 103.405 148.605 103.625C146.964 105.242 145.095 106.812 143.062 107.917C143.058 107.919 142.355 108.278 142.355 108.194C142.355 108.073 142.488 107.991 142.569 107.901C142.87 107.564 143.197 107.246 143.546 106.959C144.06 106.537 144.641 106.146 145.255 105.886C145.27 105.88 145.761 105.727 145.713 105.789C145.526 106.03 145.198 106.22 144.955 106.39C144.369 106.799 143.754 107.171 143.1 107.46C142.868 107.562 142.097 107.964 141.884 107.609C141.569 107.085 142.402 106.239 142.715 105.951C143.323 105.392 144.068 104.993 144.865 104.781C145.355 104.651 146.19 104.481 146.628 104.863C147.05 105.23 146.616 105.814 146.33 106.092C145.642 106.762 144.718 107.223 143.828 107.554C143.067 107.838 142.267 108.024 141.458 108.102C141.369 108.11 140.577 108.233 140.768 107.912C141.144 107.28 142.145 106.927 142.783 106.688C143.618 106.374 144.505 106.144 145.399 106.098C145.559 106.089 145.981 106.038 146.103 106.206C146.31 106.49 145.214 106.937 145.128 106.978C143.92 107.549 142.654 107.922 141.337 108.139C140.397 108.295 139.305 108.482 138.36 108.237C138.01 108.146 137.558 107.912 137.892 107.506C138.116 107.233 138.464 107.042 138.767 106.888C139.595 106.469 140.5 106.203 141.407 106.016C142.643 105.762 143.979 105.618 145.231 105.854C145.418 105.889 146.534 106.083 146.271 106.504C146.033 106.885 145.463 107.068 145.052 107.148C144.568 107.242 143.865 107.338 143.433 107.032C142.892 106.648 143.239 105.971 143.595 105.599C144.196 104.972 145.045 104.554 145.894 104.405C146.272 104.339 147.039 104.205 147.359 104.521C147.67 104.829 147.406 105.466 147.254 105.773C146.997 106.29 146.62 106.755 146.227 107.175C146.208 107.196 145.727 107.678 145.688 107.595C145.625 107.457 145.902 107.089 145.965 107.005C146.309 106.545 146.808 106.197 147.343 105.995C147.459 105.951 148.843 105.62 148.296 106.011C148.035 106.198 147.737 106.334 147.446 106.466C147.258 106.551 146.862 106.804 146.639 106.75C146.404 106.694 146.958 106.117 146.991 106.087C147.368 105.735 147.835 105.505 148.31 105.318C149.929 104.678 147.639 106.43 147.495 106.2C147.356 105.979 147.867 105.618 147.95 105.453C148.052 105.249 147.576 105.721 147.424 105.892" stroke="white" stroke-width="3" stroke-linecap="round"/>
<path d="M154.901 100.319C155.127 100.319 155.374 100.304 155.588 100.386C155.701 100.43 155.871 100.48 155.992 100.48C156.106 100.48 156.257 100.535 156.369 100.56C156.537 100.597 156.698 100.627 156.853 100.711C157.021 100.801 157.205 100.915 157.286 101.088C157.405 101.343 157.47 101.6 157.553 101.868C157.739 102.468 157.998 103.09 157.998 103.726C157.998 104.22 157.973 104.749 157.848 105.23C157.842 105.251 157.818 105.367 157.796 105.376C157.784 105.381 157.766 105.335 157.757 105.369C157.738 105.433 157.757 105.522 157.754 105.587C157.746 105.768 157.699 105.943 157.661 106.12C157.591 106.449 157.459 106.818 157.459 107.156C157.459 107.368 157.459 107.579 157.459 107.791C157.459 108.044 157.346 108.107 157.108 108.058C156.906 108.017 156.711 107.93 156.505 107.913C156.375 107.903 156.243 107.912 156.113 107.912C155.95 107.912 155.817 107.864 155.817 107.693C155.817 107.041 155.87 106.396 155.87 105.744C155.87 105.252 155.862 104.759 155.872 104.266C155.88 103.873 155.931 103.485 155.95 103.094C155.96 102.873 155.974 102.651 155.999 102.431C156.013 102.309 156 102.155 156.053 102.042C156.081 101.982 156.038 101.963 155.978 101.994C155.886 102.043 155.823 102.226 155.796 102.311C155.609 102.905 155.663 103.627 155.897 104.196C156.07 104.616 156.421 105.122 156.942 105.085C157.054 105.077 157.179 104.676 157.217 104.6C157.326 104.376 157.425 104.149 157.534 103.927C157.634 103.723 157.695 103.513 157.821 103.322C157.932 103.155 158.049 102.987 158.18 102.835C158.218 102.791 158.283 102.695 158.348 102.688C158.571 102.665 158.563 103.02 158.563 103.179C158.563 103.308 158.574 103.433 158.53 103.556C158.477 103.704 158.374 103.834 158.315 103.981C158.168 104.349 158.018 104.681 157.917 105.064C157.843 105.343 157.809 105.637 157.809 105.925C157.809 106.18 157.797 106.444 157.842 106.694C157.864 106.815 157.882 107.018 157.965 107.11C158.048 107.203 158.078 107.343 158.078 107.125C158.078 106.893 157.987 106.667 157.971 106.437C157.94 106.005 157.782 105.606 157.782 105.165" stroke="black" stroke-width="3" stroke-linecap="round"/>
<path d="M97.0105 99.8341C97.5725 99.8341 98.118 99.8261 98.6739 99.9149C98.9892 99.9652 99.302 100.023 99.6223 100.023C100.234 100.023 100.832 100.148 101.438 100.205C101.939 100.252 102.422 100.365 102.907 100.486C103.087 100.531 103.247 100.534 103.44 100.534C103.502 100.534 103.58 100.559 103.58 100.48C103.58 100.396 103.58 100.311 103.58 100.226C103.58 100.158 103.625 99.8963 103.574 99.8401C103.511 99.7697 103.288 99.7556 103.203 99.7533C103.096 99.7504 102.988 99.7533 102.88 99.7533C102.849 99.7533 102.822 99.7475 102.87 99.7548C102.971 99.7704 103.053 99.8451 103.123 99.9149C103.805 100.597 103.661 101.751 103.661 102.622C103.661 103.3 103.688 103.975 103.688 104.654C103.688 105.048 103.634 105.438 103.634 105.833C103.634 106.086 103.634 106.339 103.634 106.592C103.634 106.752 103.58 106.899 103.628 107.056C103.663 107.171 103.688 107.338 103.688 107.454C103.688 107.711 103.611 107.549 103.446 107.502C103.284 107.456 103.139 107.354 102.967 107.346C102.847 107.341 102.732 107.319 102.611 107.319C102.352 107.319 102.093 107.346 101.83 107.346C101.19 107.346 100.569 107.242 99.9394 107.152C99.6677 107.113 99.3898 107.125 99.1167 107.098C98.8613 107.073 98.6106 107.023 98.3567 106.99C98.1675 106.966 97.9779 106.954 97.7913 106.91C97.6722 106.881 97.5515 106.902 97.4353 106.868C97.3201 106.834 97.1166 106.913 97.0434 106.781C96.9735 106.655 97.0086 106.461 97.0105 106.323C97.0144 106.032 97.1032 105.749 97.1391 105.462C97.2429 104.631 97.4353 103.813 97.528 102.978C97.5647 102.648 97.609 102.244 97.4622 101.934C97.4336 101.874 97.4143 101.813 97.4143 101.746C97.4143 101.533 97.5891 101.897 97.6088 101.946C97.7356 102.26 97.7703 102.599 97.8048 102.934C97.849 103.362 97.8839 103.787 97.905 104.217C97.9357 104.845 97.9845 105.579 98.27 106.15C98.2897 106.189 98.3321 106.282 98.3852 106.219C98.4321 106.163 98.4529 106.075 98.4764 106.009C98.5565 105.784 98.6262 105.556 98.6858 105.324C99.0067 104.077 99.2218 102.805 99.5894 101.569C99.6571 101.342 99.7007 100.987 99.8481 100.79C99.8693 100.762 99.8678 100.858 99.8706 100.893C99.8892 101.129 99.9046 101.366 99.9185 101.602C99.9493 102.13 99.9809 102.661 100.041 103.186C100.051 103.276 100.055 103.561 100.134 103.631C100.164 103.657 100.274 103.228 100.283 103.195C100.374 102.877 100.462 102.557 100.619 102.263C100.693 102.124 100.789 101.965 100.94 101.897C101.1 101.825 101.103 102.284 101.109 102.347C101.148 102.772 101.158 103.2 101.166 103.626C101.174 104.077 101.2 104.544 101.13 104.992C101.125 105.026 101.073 105.392 101.076 105.297C101.089 104.864 101.253 104.435 101.404 104.035C101.58 103.566 101.775 103.083 102.034 102.652C102.043 102.637 102.185 102.418 102.194 102.441C102.265 102.626 102.21 102.934 102.201 103.125C102.188 103.432 102.198 103.821 102.099 104.115" stroke="black" stroke-width="3" stroke-linecap="round"/>
<path d="M114.779 101.409C114.647 101.537 114.254 101.987 114.471 102.161C114.536 102.213 114.595 102.285 114.659 102.342C114.754 102.427 114.864 102.426 114.975 102.479C115.265 102.618 115.566 102.698 115.886 102.756C116.246 102.822 116.577 102.883 116.946 102.883C117.066 102.883 117.463 102.932 117.517 102.823" stroke="#843F22" stroke-width="3" stroke-linecap="round"/>
<path d="M140.357 102.944C140.357 103.21 140.367 103.333 140.531 103.545C140.63 103.673 140.758 103.774 140.899 103.846C141.312 104.059 141.831 104.017 142.186 103.726C142.563 103.418 142.731 102.862 143.119 102.582C143.288 102.461 143.389 102.342 143.607 102.342" stroke="#843F22" stroke-width="3" stroke-linecap="round"/>
<path d="M112.804 101.336C112.804 102.021 112.653 102.898 112.94 103.535C113.265 104.257 113.944 104.659 114.701 104.848C115.648 105.085 116.836 105.167 117.812 105.059C118.338 105 118.85 104.445 119.156 104.054C119.27 103.908 119.389 103.627 119.549 103.535C119.629 103.49 119.644 103.283 119.644 103.474" stroke="#DF7B50" stroke-width="3" stroke-linecap="round"/>
<path d="M138.242 103.749C138.242 104.53 138.937 104.819 139.43 105.311C139.751 105.633 140.166 105.774 140.603 105.86C140.909 105.92 141.257 105.874 141.568 105.874C141.914 105.874 142.311 105.927 142.648 105.839C143.656 105.578 144.862 105.087 145.394 104.121C145.808 103.368 145.804 102.516 145.804 101.687" stroke="#DF7B50" stroke-width="3" stroke-linecap="round"/>
<path d="M108.344 96.8792C110.988 96.8792 113.552 97.6604 116.035 98.5108C116.772 98.7635 117.49 98.9948 118.259 99.1384C118.675 99.216 119.099 99.2141 119.514 99.2988C120.039 99.4057 120.553 99.5649 121.079 99.6683C121.938 99.8369 122.685 100.288 123.527 100.456C123.864 100.524 124.147 100.599 124.472 100.707" stroke="#F0D43F" stroke-width="3" stroke-linecap="round"/>
<path d="M124.095 99.4522C123.693 98.5214 122.908 97.939 122.15 97.3185C121.438 96.736 120.656 96.335 119.828 95.9379C117.335 94.7426 114.385 94.7995 111.732 95.2336C111.458 95.2785 111.166 95.2838 110.903 95.3591C110.713 95.4134 110.278 95.3042 110.645 95.5683C111.583 96.2439 112.425 96.8641 113.528 97.2836C114.294 97.5752 115.082 97.8061 115.867 98.0402C116.663 98.2773 117.426 98.6015 118.231 98.8107C119.595 99.1652 121.013 99.3737 122.429 99.2604C122.918 99.2212 122.845 98.9969 122.84 98.5596C122.831 97.708 122.538 97.0296 121.993 96.3841C121.399 95.6803 120.567 95.4457 119.765 95.0732C119.304 94.8589 118.74 94.9338 118.245 94.9338C117.5 94.9338 116.791 95.0225 116.052 95.0872C115.101 95.1704 114.137 95.2059 113.183 95.2441C113.125 95.2463 112.224 95.2489 112.499 95.4358C113.224 95.9277 114.167 96.1557 114.982 96.4399C115.782 96.7188 116.582 96.8631 117.408 97.0361C117.947 97.1488 118.496 97.2821 118.984 97.5416C119.574 97.8556 120.266 98.0882 120.755 98.5596C120.9 98.6989 121.337 99.1041 121.167 98.9989C120.682 98.7006 120.055 98.5379 119.528 98.3435C118.01 97.784 116.457 97.3335 114.863 97.0465C113.404 96.7837 111.717 96.7275 110.352 96.0634C110.148 95.9644 109.942 95.8583 109.752 95.7496C109.688 95.7129 109.473 95.5811 109.473 95.6241" stroke="#F0D43F" stroke-width="3" stroke-linecap="round"/>
<path d="M132.818 102.151C134.666 102.151 136.327 101.672 138.086 101.15C138.951 100.893 139.82 100.649 140.687 100.397C141.449 100.176 142.245 100.018 142.971 99.6892C144.455 99.0174 145.936 98.2791 147.339 97.4475C148.115 96.9878 148.865 96.74 149.734 96.5166C149.883 96.4784 150.022 96.4135 150.17 96.3806C150.369 96.3364 149.655 96.1138 149.539 96.0599C148.919 95.7713 148.284 95.4086 147.615 95.2475C147.104 95.1248 146.547 95.0573 146.06 94.8745C145.041 94.4924 143.783 94.62 142.72 94.62C142.411 94.62 142.101 94.617 141.792 94.62C141.369 94.624 140.991 94.7644 140.576 94.8013C140.036 94.8492 139.474 94.8103 138.94 94.9024C138.088 95.0494 137.324 95.2602 136.695 95.889C136.168 96.4164 135.746 97.0882 135.189 97.5695C134.727 97.9683 134.386 98.51 133.986 98.971C133.847 99.132 133.885 99.3085 133.885 99.5149C133.885 99.8091 133.851 100.011 134.213 100.017C135.549 100.038 136.779 99.759 138.048 99.3406C139.645 98.8141 141.041 97.8792 142.57 97.1999C143.736 96.6817 144.889 96.0874 146.081 95.631C146.542 95.4544 147.115 95.204 147.615 95.1848C147.755 95.1794 147.395 95.2584 147.384 95.2615C146.435 95.5341 145.474 95.7795 144.519 96.0285C142.107 96.657 139.62 97.1785 137.288 98.0715C136.977 98.1907 136.657 98.2826 136.367 98.4481C136.214 98.5356 135.996 99.1905 135.928 99.358C135.793 99.6885 135.801 99.7187 135.489 99.8287C135.024 99.9921 134.42 100.183 134.011 100.456" stroke="#F0D43F" stroke-width="3" stroke-linecap="round"/>
<path d="M125.807 102.408C124.517 102.408 123.12 102.345 121.936 101.773C121.154 101.395 120.17 101.201 119.325 101.008C117.622 100.622 115.951 100.117 114.242 99.7378C112.924 99.4449 111.503 99.033 110.219 98.6201C109.868 98.5074 109.536 98.4537 109.23 98.2789C109.033 98.1659 108.548 97.7827 108.548 98.0672" stroke="#F0D43F" stroke-width="3" stroke-linecap="round"/>
<path d="M132.689 103.679C134.78 103.679 136.562 102.516 138.513 101.903C140.315 101.336 141.668 100.221 143.254 99.2554C145.348 97.9809 147.605 97.0124 150.007 96.5318C150.162 96.5009 152.14 96.1723 152.06 96.5318C151.973 96.923 150.923 96.9702 150.637 97.0142C149.876 97.1313 149.111 97.2764 148.36 97.4848C147.504 97.7226 146.475 97.83 145.69 98.2789C144.402 99.0149 142.799 99.0469 141.584 99.9495C141.448 100.05 140.133 101.032 140.631 101.032C141.5 101.032 142.505 100.63 143.278 100.244C144.422 99.6718 145.386 98.9597 146.672 98.7025C147.631 98.5107 148.539 98.1708 149.525 98.0613C149.966 98.0123 150.749 97.8867 151.113 97.6436" stroke="#F0D43F" stroke-width="3" stroke-linecap="round"/>
<path d="M127.695 100.741C127.302 99.5167 126.817 98.2383 125.883 97.3038C125.384 96.8046 124.935 96.2646 124.444 95.7601C124.135 95.4426 123.914 95.0437 123.617 94.7231C123.276 94.356 123.106 93.8741 122.688 93.5843C122.068 93.1554 121.34 92.7586 120.593 92.6143C120.096 92.5182 119.473 92.5792 119.018 92.326C118.86 92.2383 118.459 92.2473 118.284 92.2473C117.855 92.2473 117.427 92.2473 116.999 92.2473C116.33 92.2473 115.676 92.3922 115.007 92.4046C113.502 92.4325 111.86 92.6326 110.524 93.3746C110.312 93.4923 110.041 93.4981 109.816 93.6105C109.309 93.8642 108.892 94.2495 108.494 94.6474C108.005 95.1368 107.866 95.7788 107.48 96.3397C107.154 96.8136 106.734 97.4213 106.723 98.0145C106.722 98.0782 106.767 98.3189 106.671 98.3291C106.421 98.3553 106.177 98.5463 105.948 98.6437C105.52 98.8258 104.794 99.1986 104.562 99.6398C104.424 99.9022 104.259 100.114 104.259 100.423C104.259 100.753 104.232 101.095 104.262 101.422C104.322 102.089 104.705 102.829 104.929 103.455C105.035 103.754 105.032 104.059 105.127 104.358C105.252 104.751 105.434 105.138 105.599 105.515C105.966 106.354 106.585 107.08 107.142 107.793C107.387 108.105 107.717 108.372 107.812 108.762C107.934 109.264 107.961 109.873 107.981 110.388C107.989 110.581 108.114 110.589 108.246 110.708C108.436 110.879 108.64 111.046 108.82 111.227C109.074 111.48 109.355 111.656 109.58 111.932C109.978 112.417 110.517 112.79 110.97 113.219C111.645 113.858 112.538 113.979 113.379 114.241C113.675 114.334 114.007 114.304 114.314 114.361C114.71 114.435 115.181 114.47 115.583 114.477C116.771 114.5 117.95 114.206 119.087 113.877C119.568 113.738 120.083 113.707 120.553 113.534C120.696 113.481 120.91 113.408 121.065 113.4C121.24 113.39 121.418 113.213 121.572 113.126C122.053 112.854 122.602 112.69 123.092 112.421C123.914 111.969 124.786 111.493 125.65 111.133C125.938 111.014 126.203 110.823 126.462 110.65C126.557 110.587 126.813 110.475 126.856 110.359C126.965 110.059 127.202 109.785 127.377 109.523C127.613 109.169 127.757 108.758 127.931 108.372C128.203 107.764 128.439 107.159 128.598 106.508C128.744 105.904 128.397 105.403 128.114 104.894C127.891 104.492 127.728 104.077 127.639 103.63C127.629 103.581 127.537 103.767 127.537 103.534C127.537 103.145 127.59 102.76 127.59 102.369C127.59 101.556 127 101.07 126.78 100.348C126.672 99.9936 126.648 99.6101 126.489 99.2728C126.43 99.1479 126.227 98.7196 126.238 98.7485C126.402 99.1591 125.825 97.9629 125.679 97.5456C125.569 97.2306 125.555 96.9176 125.417 96.6019C125.31 96.3581 125.155 96.1987 124.968 96.0222C124.721 95.7877 124.516 95.4958 124.246 95.2882C123.977 95.0812 123.547 94.7526 123.395 94.4494" stroke="#777373" stroke-width="3" stroke-linecap="round"/>
<path d="M148.193 92.2885C146.826 92.2885 145.469 92.2793 144.106 92.2111C143.194 92.1655 142.314 92.0427 141.398 92.0427C140.385 92.0427 139.179 91.8682 138.216 92.2248C137.489 92.4941 136.757 92.8253 136.113 93.2352C135.853 93.4007 135.319 93.6239 135.167 93.8906C135.009 94.1656 134.571 94.5746 134.306 94.7509C133.72 95.1416 133.338 96.0517 133.1 96.6944C132.973 97.037 132.77 97.3584 132.713 97.7276C132.64 98.2015 132.262 98.6725 132.008 99.0885C131.066 100.629 130.824 102.457 130.824 104.25C130.824 105.861 131.103 107.229 131.826 108.674C131.891 108.804 132.359 109.626 132.331 109.648C132.197 109.755 131.83 109.221 131.894 109.38C132.123 109.952 132.838 110.627 133.323 111.004C133.909 111.46 134.337 112.109 134.984 112.525C135.55 112.888 136.027 113.383 136.641 113.69C137.135 113.937 137.595 114.327 138.157 114.327C138.936 114.327 139.649 114.243 140.41 114.159C141.213 114.069 141.971 113.917 142.786 113.917C143.55 113.917 144.315 113.917 145.08 113.917C145.373 113.917 145.67 113.906 145.963 113.917C146.148 113.925 145.974 114.027 145.863 113.995C145.727 113.956 146.132 113.779 146.163 113.772C146.726 113.631 147.287 113.283 147.884 113.262C148.228 113.25 148.611 113.222 148.93 113.08C149.445 112.851 149.881 112.528 150.077 111.988C150.359 111.214 151.017 110.498 151.552 109.903C151.712 109.725 151.851 109.512 151.98 109.311C152.217 108.943 152.553 108.73 152.854 108.428C153.178 108.104 153.603 107.838 153.887 107.491C154.137 107.185 154.502 106.853 154.502 106.421C154.502 105.975 154.587 105.509 154.706 105.078C154.937 104.249 154.603 103.318 154.438 102.511C154.354 102.1 154.092 101.677 154.092 101.26C154.092 100.731 153.96 100.256 153.846 99.7439C153.562 98.4655 153.502 97.2676 153.436 95.9661C153.435 95.9331 152.521 95.3225 152.39 95.2379C151.943 94.9509 151.532 94.5789 151.061 94.3367C150.526 94.0615 149.864 93.6108 149.454 93.39C148.523 92.8888 147.315 92.4826 146.272 92.293C145.15 92.0889 143.986 92.4523 142.868 92.4523" stroke="#777373" stroke-width="3" stroke-linecap="round"/>
</svg>
