<svg width="256" height="256" viewBox="0 0 256 256" fill="none" xmlns="http://www.w3.org/2000/svg">
<path d="M127.768 126.999C125.719 126.999 124.841 127.297 124.4 129.284C124.127 130.511 124.112 131.661 124.112 132.958C124.112 135.368 127.423 137.969 129.665 137.969C133.006 137.969 138.722 135.358 136.436 131.112C134.545 127.601 130.718 126.999 127.159 126.999" stroke="black" stroke-width="3" stroke-linecap="round"/>
<path d="M125.94 129.132C125.94 130.877 126.343 133.475 128.226 134.312C129.815 135.018 132.303 136.248 134.168 135.463C135.086 135.077 135.387 135.014 135.387 133.94C135.387 132.883 135.759 130.757 134.913 129.91C133.611 128.609 131.904 128.827 130.206 128.827C128.278 128.827 126.854 128.869 126.854 131.129C126.854 132.59 127.508 134.018 128.547 135.057C129.433 135.943 130.077 136.911 130.579 135.463C130.839 134.712 131.15 132.938 130.748 132.179C130.563 131.83 129.337 131.57 129.732 131.57C130.505 131.57 131.763 132.299 132.322 132.788C133.701 133.995 132.804 134.39 131.137 133.973C130.271 133.757 130.001 130.96 131.12 130.96" stroke="black" stroke-width="3" stroke-linecap="round"/>
<path d="M128.073 130.655C128.807 130.655 134.69 130.095 134.777 131.57C134.94 134.345 131.942 131.823 130.663 131.112C129.854 130.663 128.539 130.351 127.616 130.351C126.626 130.351 127.207 132.311 127.785 132.636C128.708 133.155 130.164 133.693 131.256 133.381C131.659 133.266 133.426 132.139 133.558 131.874" stroke="black" stroke-width="3" stroke-linecap="round"/>
</svg>
