<svg width="256" height="256" viewBox="0 0 256 256" fill="none" xmlns="http://www.w3.org/2000/svg">
<path d="M103.29 1.90909V15H100.522V1.90909H103.29ZM109.733 15V1.90909H112.5V7.31037H118.119V1.90909H120.88V15H118.119V9.59233H112.5V15H109.733ZM125.419 15H122.453L126.972 1.90909H130.539L135.052 15H132.086L128.807 4.90057H128.704L125.419 15ZM125.233 9.8544H132.239V12.0149H125.233V9.8544ZM134.529 4.19105V1.90909H145.28V4.19105H141.273V15H138.537V4.19105H134.529ZM147.051 15V1.90909H155.872V4.19105H149.819V7.31037H155.418V9.59233H149.819V12.718H155.898V15H147.051Z" fill="black"/>
<path d="M60.1085 240.896H63.5218L67.127 249.692H67.2804L70.8855 240.896H74.2988V253.987H71.6142V245.467H71.5055L68.1177 253.923H66.2896L62.9018 245.435H62.7931V253.987H60.1085V240.896ZM79.3469 240.896V253.987H76.5792V240.896H79.3469ZM92.5737 240.896V253.987H90.1831L84.4877 245.748H84.3919V253.987H81.6241V240.896H84.0531L89.7037 249.129H89.8187V240.896H92.5737ZM97.6282 240.896V253.987H94.8604V240.896H97.6282ZM111.935 247.442C111.935 248.869 111.665 250.084 111.123 251.085C110.586 252.087 109.854 252.852 108.925 253.38C108 253.904 106.96 254.166 105.805 254.166C104.642 254.166 103.598 253.902 102.673 253.374C101.748 252.845 101.018 252.08 100.481 251.079C99.9437 250.077 99.6752 248.865 99.6752 247.442C99.6752 246.014 99.9437 244.8 100.481 243.798C101.018 242.797 101.748 242.034 102.673 241.51C103.598 240.982 104.642 240.717 105.805 240.717C106.96 240.717 108 240.982 108.925 241.51C109.854 242.034 110.586 242.797 111.123 243.798C111.665 244.8 111.935 246.014 111.935 247.442ZM109.129 247.442C109.129 246.517 108.991 245.737 108.714 245.102C108.441 244.467 108.055 243.986 107.557 243.658C107.058 243.33 106.474 243.165 105.805 243.165C105.136 243.165 104.552 243.33 104.054 243.658C103.555 243.986 103.167 244.467 102.89 245.102C102.618 245.737 102.481 246.517 102.481 247.442C102.481 248.366 102.618 249.146 102.89 249.781C103.167 250.416 103.555 250.898 104.054 251.226C104.552 251.554 105.136 251.718 105.805 251.718C106.474 251.718 107.058 251.554 107.557 251.226C108.055 250.898 108.441 250.416 108.714 249.781C108.991 249.146 109.129 248.366 109.129 247.442ZM124.935 240.896V253.987H122.544L116.849 245.748H116.753V253.987H113.985V240.896H116.414L122.065 249.129H122.18V240.896H124.935ZM131.388 240.896H134.801L138.406 249.692H138.56L142.165 240.896H145.578V253.987H142.893V245.467H142.785L139.397 253.923H137.569L134.181 245.435H134.072V253.987H131.388V240.896ZM147.858 253.987V240.896H156.68V243.178H150.626V246.298H156.226V248.58H150.626V251.705H156.705V253.987H147.858ZM158.88 240.896H162.293L165.898 249.692H166.052L169.657 240.896H173.07V253.987H170.386V245.467H170.277L166.889 253.923H165.061L161.673 245.435H161.565V253.987H158.88V240.896ZM175.351 253.987V240.896H184.172V243.178H178.118V246.298H183.718V248.58H178.118V251.705H184.197V253.987H175.351ZM193.474 244.661C193.423 244.146 193.203 243.745 192.815 243.46C192.428 243.174 191.901 243.031 191.237 243.031C190.785 243.031 190.403 243.095 190.092 243.223C189.781 243.347 189.543 243.519 189.376 243.741C189.214 243.962 189.134 244.214 189.134 244.495C189.125 244.729 189.174 244.934 189.281 245.109C189.391 245.283 189.543 245.435 189.734 245.562C189.926 245.686 190.148 245.795 190.399 245.888C190.651 245.978 190.919 246.055 191.205 246.119L192.381 246.4C192.952 246.528 193.476 246.698 193.953 246.911C194.43 247.124 194.844 247.386 195.193 247.697C195.543 248.009 195.813 248.375 196.005 248.797C196.201 249.219 196.301 249.702 196.305 250.248C196.301 251.049 196.097 251.744 195.692 252.332C195.291 252.915 194.712 253.369 193.953 253.693C193.199 254.013 192.289 254.173 191.224 254.173C190.167 254.173 189.246 254.011 188.462 253.687C187.683 253.363 187.073 252.884 186.634 252.249C186.2 251.609 185.972 250.819 185.95 249.877H188.629C188.658 250.316 188.784 250.683 189.006 250.977C189.232 251.266 189.532 251.486 189.907 251.635C190.286 251.78 190.714 251.852 191.192 251.852C191.661 251.852 192.067 251.784 192.413 251.648C192.762 251.511 193.033 251.322 193.224 251.079C193.416 250.836 193.512 250.557 193.512 250.241C193.512 249.947 193.425 249.7 193.25 249.5C193.08 249.3 192.828 249.129 192.496 248.989C192.168 248.848 191.765 248.72 191.288 248.605L189.862 248.247C188.759 247.979 187.887 247.559 187.248 246.988C186.609 246.417 186.291 245.648 186.295 244.68C186.291 243.888 186.502 243.195 186.928 242.603C187.359 242.011 187.949 241.548 188.699 241.216C189.449 240.884 190.301 240.717 191.256 240.717C192.227 240.717 193.075 240.884 193.8 241.216C194.528 241.548 195.095 242.011 195.5 242.603C195.905 243.195 196.114 243.881 196.126 244.661H193.474Z" fill="black"/>
</svg>
