<svg width="256" height="256" viewBox="0 0 256 256" fill="none" xmlns="http://www.w3.org/2000/svg">
<rect width="256" height="256" fill="#F2ECD7"/>
<path d="M17.0114 3.36364H20.0455L23.25 11.1818H23.3864L26.5909 3.36364H29.625V15H27.2386V7.42614H27.142L24.1307 14.9432H22.5057L19.4943 7.39773H19.3977V15H17.0114V3.36364ZM33.1009 18.2727C32.794 18.2727 32.5062 18.2481 32.2372 18.1989C31.9721 18.1534 31.7524 18.0947 31.5781 18.0227L32.1236 16.2159C32.4077 16.303 32.6634 16.3504 32.8906 16.358C33.1217 16.3655 33.3205 16.3125 33.4872 16.1989C33.6577 16.0852 33.7959 15.892 33.902 15.6193L34.044 15.25L30.9134 6.27273H33.4588L35.2656 12.6818H35.3565L37.1804 6.27273H39.7429L36.3509 15.9432C36.188 16.4129 35.9664 16.822 35.6861 17.1705C35.4096 17.5227 35.0592 17.7936 34.6349 17.983C34.2107 18.1761 33.6993 18.2727 33.1009 18.2727ZM44.7301 15V3.36364H47.1506V7.73864H47.2244C47.3305 7.50379 47.4839 7.26515 47.6847 7.02273C47.8892 6.77652 48.1544 6.57197 48.4801 6.40909C48.8097 6.24242 49.2188 6.15909 49.7074 6.15909C50.3438 6.15909 50.9309 6.32576 51.4688 6.65909C52.0066 6.98864 52.4366 7.48674 52.7585 8.15341C53.0805 8.81629 53.2415 9.64773 53.2415 10.6477C53.2415 11.6212 53.0843 12.4432 52.7699 13.1136C52.4593 13.7803 52.035 14.286 51.4972 14.6307C50.9631 14.9716 50.3646 15.142 49.7017 15.142C49.232 15.142 48.8324 15.0644 48.5028 14.9091C48.1771 14.7538 47.91 14.5587 47.7017 14.3239C47.4934 14.0852 47.3343 13.8447 47.2244 13.6023H47.1165V15H44.7301ZM47.0994 10.6364C47.0994 11.1553 47.1714 11.608 47.3153 11.9943C47.4593 12.3807 47.6676 12.6818 47.9403 12.8977C48.2131 13.1098 48.5445 13.2159 48.9347 13.2159C49.3286 13.2159 49.6619 13.108 49.9347 12.892C50.2074 12.6723 50.4138 12.3693 50.554 11.983C50.6979 11.5928 50.7699 11.1439 50.7699 10.6364C50.7699 10.1326 50.6998 9.68939 50.5597 9.30682C50.4195 8.92424 50.2131 8.625 49.9403 8.40909C49.6676 8.19318 49.3324 8.08523 48.9347 8.08523C48.5407 8.08523 48.2074 8.18939 47.9347 8.39773C47.6657 8.60606 47.4593 8.90151 47.3153 9.28409C47.1714 9.66667 47.0994 10.1174 47.0994 10.6364ZM58.7997 15.1705C57.9171 15.1705 57.1539 14.983 56.5099 14.608C55.8698 14.2292 55.3755 13.7027 55.027 13.0284C54.6785 12.3504 54.5043 11.5644 54.5043 10.6705C54.5043 9.76894 54.6785 8.98106 55.027 8.30682C55.3755 7.62879 55.8698 7.10227 56.5099 6.72727C57.1539 6.34848 57.9171 6.15909 58.7997 6.15909C59.6823 6.15909 60.4437 6.34848 61.0838 6.72727C61.7277 7.10227 62.224 7.62879 62.5724 8.30682C62.9209 8.98106 63.0952 9.76894 63.0952 10.6705C63.0952 11.5644 62.9209 12.3504 62.5724 13.0284C62.224 13.7027 61.7277 14.2292 61.0838 14.608C60.4437 14.983 59.6823 15.1705 58.7997 15.1705ZM58.8111 13.2955C59.2126 13.2955 59.5478 13.1818 59.8168 12.9545C60.0857 12.7235 60.2884 12.4091 60.4247 12.0114C60.5649 11.6136 60.6349 11.161 60.6349 10.6534C60.6349 10.1458 60.5649 9.69318 60.4247 9.29545C60.2884 8.89773 60.0857 8.58333 59.8168 8.35227C59.5478 8.12121 59.2126 8.00568 58.8111 8.00568C58.4058 8.00568 58.0649 8.12121 57.7884 8.35227C57.5156 8.58333 57.3092 8.89773 57.169 9.29545C57.0327 9.69318 56.9645 10.1458 56.9645 10.6534C56.9645 11.161 57.0327 11.6136 57.169 12.0114C57.3092 12.4091 57.5156 12.7235 57.7884 12.9545C58.0649 13.1818 58.4058 13.2955 58.8111 13.2955ZM71.9304 8.76136L69.7145 8.89773C69.6766 8.70833 69.5952 8.53788 69.4702 8.38636C69.3452 8.23106 69.1804 8.10795 68.9759 8.01705C68.7751 7.92235 68.5346 7.875 68.2543 7.875C67.8793 7.875 67.563 7.95455 67.3054 8.11364C67.0478 8.26894 66.919 8.47727 66.919 8.73864C66.919 8.94697 67.0024 9.12311 67.169 9.26705C67.3357 9.41098 67.6217 9.52652 68.027 9.61364L69.6065 9.93182C70.455 10.1061 71.0876 10.3864 71.5043 10.7727C71.9209 11.1591 72.1293 11.6667 72.1293 12.2955C72.1293 12.8674 71.9607 13.3693 71.6236 13.8011C71.2902 14.233 70.8319 14.5701 70.2486 14.8125C69.669 15.0511 69.0005 15.1705 68.2429 15.1705C67.0876 15.1705 66.1671 14.9299 65.4815 14.4489C64.7997 13.964 64.4001 13.3049 64.2827 12.4716L66.6634 12.3466C66.7353 12.6989 66.9096 12.9678 67.1861 13.1534C67.4626 13.3352 67.8168 13.4261 68.2486 13.4261C68.6728 13.4261 69.0137 13.3447 69.2713 13.1818C69.5327 13.0152 69.6652 12.8011 69.669 12.5398C69.6652 12.3201 69.5724 12.1402 69.3906 12C69.2088 11.8561 68.9285 11.7462 68.5497 11.6705L67.0384 11.3693C66.1861 11.1989 65.5516 10.9034 65.1349 10.483C64.7221 10.0625 64.5156 9.52652 64.5156 8.875C64.5156 8.31439 64.6671 7.83144 64.9702 7.42614C65.277 7.02083 65.7069 6.70833 66.2599 6.48864C66.8168 6.26894 67.4683 6.15909 68.2145 6.15909C69.3168 6.15909 70.1842 6.39205 70.8168 6.85795C71.4531 7.32386 71.8243 7.95833 71.9304 8.76136ZM80.9148 8.76136L78.6989 8.89773C78.661 8.70833 78.5795 8.53788 78.4545 8.38636C78.3295 8.23106 78.1648 8.10795 77.9602 8.01705C77.7595 7.92235 77.5189 7.875 77.2386 7.875C76.8636 7.875 76.5473 7.95455 76.2898 8.11364C76.0322 8.26894 75.9034 8.47727 75.9034 8.73864C75.9034 8.94697 75.9867 9.12311 76.1534 9.26705C76.3201 9.41098 76.6061 9.52652 77.0114 9.61364L78.5909 9.93182C79.4394 10.1061 80.072 10.3864 80.4886 10.7727C80.9053 11.1591 81.1136 11.6667 81.1136 12.2955C81.1136 12.8674 80.9451 13.3693 80.608 13.8011C80.2746 14.233 79.8163 14.5701 79.233 14.8125C78.6534 15.0511 77.9848 15.1705 77.2273 15.1705C76.072 15.1705 75.1515 14.9299 74.4659 14.4489C73.7841 13.964 73.3845 13.3049 73.267 12.4716L75.6477 12.3466C75.7197 12.6989 75.8939 12.9678 76.1705 13.1534C76.447 13.3352 76.8011 13.4261 77.233 13.4261C77.6572 13.4261 77.9981 13.3447 78.2557 13.1818C78.517 13.0152 78.6496 12.8011 78.6534 12.5398C78.6496 12.3201 78.5568 12.1402 78.375 12C78.1932 11.8561 77.9129 11.7462 77.5341 11.6705L76.0227 11.3693C75.1705 11.1989 74.536 10.9034 74.1193 10.483C73.7064 10.0625 73.5 9.52652 73.5 8.875C73.5 8.31439 73.6515 7.83144 73.9545 7.42614C74.2614 7.02083 74.6913 6.70833 75.2443 6.48864C75.8011 6.26894 76.4527 6.15909 77.1989 6.15909C78.3011 6.15909 79.1686 6.39205 79.8011 6.85795C80.4375 7.32386 80.8087 7.95833 80.9148 8.76136ZM90.983 6.27273V8.09091H85.7273V6.27273H90.983ZM86.9205 4.18182H89.3409V12.3182C89.3409 12.5417 89.375 12.7159 89.4432 12.8409C89.5114 12.9621 89.6061 13.0473 89.7273 13.0966C89.8523 13.1458 89.9962 13.1705 90.1591 13.1705C90.2727 13.1705 90.3864 13.161 90.5 13.142C90.6136 13.1193 90.7008 13.1023 90.7614 13.0909L91.142 14.892C91.0208 14.9299 90.8504 14.9735 90.6307 15.0227C90.411 15.0758 90.1439 15.108 89.8295 15.1193C89.2462 15.142 88.7348 15.0644 88.2955 14.8864C87.8598 14.7083 87.5208 14.4318 87.2784 14.0568C87.036 13.6818 86.9167 13.2083 86.9205 12.6364V4.18182ZM96.4091 15.1705C95.5265 15.1705 94.7633 14.983 94.1193 14.608C93.4792 14.2292 92.9848 13.7027 92.6364 13.0284C92.2879 12.3504 92.1136 11.5644 92.1136 10.6705C92.1136 9.76894 92.2879 8.98106 92.6364 8.30682C92.9848 7.62879 93.4792 7.10227 94.1193 6.72727C94.7633 6.34848 95.5265 6.15909 96.4091 6.15909C97.2917 6.15909 98.053 6.34848 98.6932 6.72727C99.3371 7.10227 99.8333 7.62879 100.182 8.30682C100.53 8.98106 100.705 9.76894 100.705 10.6705C100.705 11.5644 100.53 12.3504 100.182 13.0284C99.8333 13.7027 99.3371 14.2292 98.6932 14.608C98.053 14.983 97.2917 15.1705 96.4091 15.1705ZM96.4205 13.2955C96.822 13.2955 97.1572 13.1818 97.4261 12.9545C97.6951 12.7235 97.8977 12.4091 98.0341 12.0114C98.1742 11.6136 98.2443 11.161 98.2443 10.6534C98.2443 10.1458 98.1742 9.69318 98.0341 9.29545C97.8977 8.89773 97.6951 8.58333 97.4261 8.35227C97.1572 8.12121 96.822 8.00568 96.4205 8.00568C96.0152 8.00568 95.6742 8.12121 95.3977 8.35227C95.125 8.58333 94.9186 8.89773 94.7784 9.29545C94.642 9.69318 94.5739 10.1458 94.5739 10.6534C94.5739 11.161 94.642 11.6136 94.7784 12.0114C94.9186 12.4091 95.125 12.7235 95.3977 12.9545C95.6742 13.1818 96.0152 13.2955 96.4205 13.2955ZM104.699 3.36364V15H102.278V3.36364H104.699ZM109.854 15.142C109.191 15.142 108.59 14.9716 108.053 14.6307C107.518 14.286 107.094 13.7803 106.78 13.1136C106.469 12.4432 106.314 11.6212 106.314 10.6477C106.314 9.64773 106.475 8.81629 106.797 8.15341C107.119 7.48674 107.547 6.98864 108.081 6.65909C108.619 6.32576 109.208 6.15909 109.848 6.15909C110.337 6.15909 110.744 6.24242 111.07 6.40909C111.399 6.57197 111.664 6.77652 111.865 7.02273C112.07 7.26515 112.225 7.50379 112.331 7.73864H112.405V3.36364H114.82V15H112.433V13.6023H112.331C112.217 13.8447 112.056 14.0852 111.848 14.3239C111.643 14.5587 111.376 14.7538 111.047 14.9091C110.721 15.0644 110.323 15.142 109.854 15.142ZM110.621 13.2159C111.011 13.2159 111.34 13.1098 111.609 12.8977C111.882 12.6818 112.09 12.3807 112.234 11.9943C112.382 11.608 112.456 11.1553 112.456 10.6364C112.456 10.1174 112.384 9.66667 112.24 9.28409C112.096 8.90151 111.888 8.60606 111.615 8.39773C111.342 8.18939 111.011 8.08523 110.621 8.08523C110.223 8.08523 109.888 8.19318 109.615 8.40909C109.342 8.625 109.136 8.92424 108.996 9.30682C108.856 9.68939 108.786 10.1326 108.786 10.6364C108.786 11.1439 108.856 11.5928 108.996 11.983C109.14 12.3693 109.346 12.6723 109.615 12.892C109.888 13.108 110.223 13.2159 110.621 13.2159Z" fill="black"/>
<path d="M1.96591 34V25.2727H4.27273V26.8125H4.375C4.55682 26.3011 4.85985 25.8977 5.28409 25.6023C5.70833 25.3068 6.21591 25.1591 6.80682 25.1591C7.4053 25.1591 7.91477 25.3087 8.33523 25.608C8.75568 25.9034 9.03599 26.3049 9.17614 26.8125H9.26705C9.44508 26.3125 9.76705 25.9129 10.233 25.6136C10.7027 25.3106 11.2576 25.1591 11.8977 25.1591C12.7121 25.1591 13.3731 25.4186 13.8807 25.9375C14.392 26.4527 14.6477 27.1837 14.6477 28.1307V34H12.233V28.608C12.233 28.1231 12.1042 27.7595 11.8466 27.517C11.589 27.2746 11.267 27.1534 10.8807 27.1534C10.4413 27.1534 10.0985 27.2936 9.85227 27.5739C9.60606 27.8504 9.48295 28.2159 9.48295 28.6705V34H7.13636V28.5568C7.13636 28.1288 7.01326 27.7879 6.76705 27.5341C6.52462 27.2803 6.20455 27.1534 5.80682 27.1534C5.53788 27.1534 5.29545 27.2216 5.07955 27.358C4.86742 27.4905 4.69886 27.678 4.57386 27.9205C4.44886 28.1591 4.38636 28.4394 4.38636 28.7614V34H1.96591ZM20.5369 34.1705C19.6392 34.1705 18.8665 33.9886 18.2188 33.625C17.5748 33.2576 17.0786 32.7386 16.7301 32.0682C16.3816 31.3939 16.2074 30.5966 16.2074 29.6761C16.2074 28.7784 16.3816 27.9905 16.7301 27.3125C17.0786 26.6345 17.5691 26.1061 18.2017 25.7273C18.8381 25.3485 19.5843 25.1591 20.4403 25.1591C21.0161 25.1591 21.5521 25.2519 22.0483 25.4375C22.5483 25.6193 22.9839 25.8939 23.3551 26.2614C23.7301 26.6288 24.0218 27.0909 24.2301 27.6477C24.4384 28.2008 24.5426 28.8485 24.5426 29.5909V30.2557H17.1733V28.7557H22.2642C22.2642 28.4072 22.1884 28.0985 22.0369 27.8295C21.8854 27.5606 21.6752 27.3504 21.4062 27.1989C21.1411 27.0436 20.8324 26.9659 20.4801 26.9659C20.1127 26.9659 19.7869 27.0511 19.5028 27.2216C19.2225 27.3883 19.0028 27.6136 18.8438 27.8977C18.6847 28.178 18.6032 28.4905 18.5994 28.8352V30.2614C18.5994 30.6932 18.679 31.0663 18.8381 31.3807C19.0009 31.6951 19.2301 31.9375 19.5256 32.108C19.821 32.2784 20.1714 32.3636 20.5767 32.3636C20.8456 32.3636 21.0919 32.3258 21.3153 32.25C21.5388 32.1742 21.7301 32.0606 21.8892 31.9091C22.0483 31.7576 22.1695 31.572 22.2528 31.3523L24.4915 31.5C24.3778 32.0379 24.1449 32.5076 23.7926 32.9091C23.4441 33.3068 22.9934 33.6174 22.4403 33.8409C21.8911 34.0606 21.2566 34.1705 20.5369 34.1705ZM34.4673 25.2727V27.0909H29.2116V25.2727H34.4673ZM30.4048 23.1818H32.8253V31.3182C32.8253 31.5417 32.8594 31.7159 32.9276 31.8409C32.9957 31.9621 33.0904 32.0473 33.2116 32.0966C33.3366 32.1458 33.4806 32.1705 33.6435 32.1705C33.7571 32.1705 33.8707 32.161 33.9844 32.142C34.098 32.1193 34.1851 32.1023 34.2457 32.0909L34.6264 33.892C34.5052 33.9299 34.3348 33.9735 34.1151 34.0227C33.8954 34.0758 33.6283 34.108 33.3139 34.1193C32.7306 34.142 32.2192 34.0644 31.7798 33.8864C31.3442 33.7083 31.0052 33.4318 30.7628 33.0568C30.5204 32.6818 30.401 32.2083 30.4048 31.6364V23.1818ZM39.8935 34.1705C39.0109 34.1705 38.2476 33.983 37.6037 33.608C36.9635 33.2292 36.4692 32.7027 36.1207 32.0284C35.7723 31.3504 35.598 30.5644 35.598 29.6705C35.598 28.7689 35.7723 27.9811 36.1207 27.3068C36.4692 26.6288 36.9635 26.1023 37.6037 25.7273C38.2476 25.3485 39.0109 25.1591 39.8935 25.1591C40.776 25.1591 41.5374 25.3485 42.1776 25.7273C42.8215 26.1023 43.3177 26.6288 43.6662 27.3068C44.0147 27.9811 44.1889 28.7689 44.1889 29.6705C44.1889 30.5644 44.0147 31.3504 43.6662 32.0284C43.3177 32.7027 42.8215 33.2292 42.1776 33.608C41.5374 33.983 40.776 34.1705 39.8935 34.1705ZM39.9048 32.2955C40.3063 32.2955 40.6416 32.1818 40.9105 31.9545C41.1795 31.7235 41.3821 31.4091 41.5185 31.0114C41.6586 30.6136 41.7287 30.161 41.7287 29.6534C41.7287 29.1458 41.6586 28.6932 41.5185 28.2955C41.3821 27.8977 41.1795 27.5833 40.9105 27.3523C40.6416 27.1212 40.3063 27.0057 39.9048 27.0057C39.4995 27.0057 39.1586 27.1212 38.8821 27.3523C38.6094 27.5833 38.4029 27.8977 38.2628 28.2955C38.1264 28.6932 38.0582 29.1458 38.0582 29.6534C38.0582 30.161 38.1264 30.6136 38.2628 31.0114C38.4029 31.4091 38.6094 31.7235 38.8821 31.9545C39.1586 32.1818 39.4995 32.2955 39.9048 32.2955Z" fill="black"/>
<path d="M9.01136 53V41.3636H11.4716V46.1648H16.4659V41.3636H18.9205V53H16.4659V48.1932H11.4716V53H9.01136ZM23.392 53.1648C22.8352 53.1648 22.339 53.0682 21.9034 52.875C21.4678 52.678 21.1231 52.3883 20.8693 52.0057C20.6193 51.6193 20.4943 51.1383 20.4943 50.5625C20.4943 50.0777 20.5833 49.6705 20.7614 49.3409C20.9394 49.0114 21.1818 48.7462 21.4886 48.5455C21.7955 48.3447 22.1439 48.1932 22.5341 48.0909C22.928 47.9886 23.3409 47.9167 23.7727 47.875C24.2803 47.822 24.6894 47.7727 25 47.7273C25.3106 47.678 25.536 47.6061 25.6761 47.5114C25.8163 47.4167 25.8864 47.2765 25.8864 47.0909V47.0568C25.8864 46.697 25.7727 46.4186 25.5455 46.2216C25.322 46.0246 25.0038 45.9261 24.5909 45.9261C24.1553 45.9261 23.8087 46.0227 23.5511 46.2159C23.2936 46.4053 23.1231 46.6439 23.0398 46.9318L20.8011 46.75C20.9148 46.2197 21.1383 45.7614 21.4716 45.375C21.8049 44.9848 22.2348 44.6856 22.7614 44.4773C23.2917 44.2652 23.9053 44.1591 24.6023 44.1591C25.0871 44.1591 25.5511 44.2159 25.9943 44.3295C26.4413 44.4432 26.8371 44.6193 27.1818 44.858C27.5303 45.0966 27.8049 45.4034 28.0057 45.7784C28.2064 46.1496 28.3068 46.5947 28.3068 47.1136V53H26.0114V51.7898H25.9432C25.803 52.0625 25.6155 52.303 25.3807 52.5114C25.1458 52.7159 24.8636 52.8769 24.5341 52.9943C24.2045 53.108 23.8239 53.1648 23.392 53.1648ZM24.0852 51.4943C24.4413 51.4943 24.7557 51.4242 25.0284 51.2841C25.3011 51.1402 25.5152 50.947 25.6705 50.7045C25.8258 50.4621 25.9034 50.1875 25.9034 49.8807V48.9545C25.8277 49.0038 25.7235 49.0492 25.5909 49.0909C25.4621 49.1288 25.3163 49.1648 25.1534 49.1989C24.9905 49.2292 24.8277 49.2576 24.6648 49.2841C24.5019 49.3068 24.3542 49.3277 24.2216 49.3466C23.9375 49.3883 23.6894 49.4545 23.4773 49.5455C23.2652 49.6364 23.1004 49.7595 22.983 49.9148C22.8655 50.0663 22.8068 50.2557 22.8068 50.483C22.8068 50.8125 22.9261 51.0644 23.1648 51.2386C23.4072 51.4091 23.714 51.4943 24.0852 51.4943ZM38.0085 44.2727L34.9574 53H32.2301L29.179 44.2727H31.7358L33.5483 50.517H33.6392L35.446 44.2727H38.0085ZM42.9432 53.1705C42.0455 53.1705 41.2727 52.9886 40.625 52.625C39.9811 52.2576 39.4848 51.7386 39.1364 51.0682C38.7879 50.3939 38.6136 49.5966 38.6136 48.6761C38.6136 47.7784 38.7879 46.9905 39.1364 46.3125C39.4848 45.6345 39.9754 45.1061 40.608 44.7273C41.2443 44.3485 41.9905 44.1591 42.8466 44.1591C43.4223 44.1591 43.9583 44.2519 44.4545 44.4375C44.9545 44.6193 45.3902 44.8939 45.7614 45.2614C46.1364 45.6288 46.428 46.0909 46.6364 46.6477C46.8447 47.2008 46.9489 47.8485 46.9489 48.5909V49.2557H39.5795V47.7557H44.6705C44.6705 47.4072 44.5947 47.0985 44.4432 46.8295C44.2917 46.5606 44.0814 46.3504 43.8125 46.1989C43.5473 46.0436 43.2386 45.9659 42.8864 45.9659C42.5189 45.9659 42.1932 46.0511 41.9091 46.2216C41.6288 46.3883 41.4091 46.6136 41.25 46.8977C41.0909 47.178 41.0095 47.4905 41.0057 47.8352V49.2614C41.0057 49.6932 41.0852 50.0663 41.2443 50.3807C41.4072 50.6951 41.6364 50.9375 41.9318 51.108C42.2273 51.2784 42.5777 51.3636 42.983 51.3636C43.2519 51.3636 43.4981 51.3258 43.7216 51.25C43.9451 51.1742 44.1364 51.0606 44.2955 50.9091C44.4545 50.7576 44.5758 50.572 44.6591 50.3523L46.8977 50.5C46.7841 51.0379 46.5511 51.5076 46.1989 51.9091C45.8504 52.3068 45.3996 52.6174 44.8466 52.8409C44.2973 53.0606 43.6629 53.1705 42.9432 53.1705ZM54.7202 53.1648C54.1634 53.1648 53.6671 53.0682 53.2315 52.875C52.7959 52.678 52.4512 52.3883 52.1974 52.0057C51.9474 51.6193 51.8224 51.1383 51.8224 50.5625C51.8224 50.0777 51.9115 49.6705 52.0895 49.3409C52.2675 49.0114 52.5099 48.7462 52.8168 48.5455C53.1236 48.3447 53.4721 48.1932 53.8622 48.0909C54.2562 47.9886 54.669 47.9167 55.1009 47.875C55.6084 47.822 56.0175 47.7727 56.3281 47.7273C56.6387 47.678 56.8641 47.6061 57.0043 47.5114C57.1444 47.4167 57.2145 47.2765 57.2145 47.0909V47.0568C57.2145 46.697 57.1009 46.4186 56.8736 46.2216C56.6501 46.0246 56.3319 45.9261 55.919 45.9261C55.4834 45.9261 55.1368 46.0227 54.8793 46.2159C54.6217 46.4053 54.4512 46.6439 54.3679 46.9318L52.1293 46.75C52.2429 46.2197 52.4664 45.7614 52.7997 45.375C53.133 44.9848 53.563 44.6856 54.0895 44.4773C54.6198 44.2652 55.2334 44.1591 55.9304 44.1591C56.4152 44.1591 56.8793 44.2159 57.3224 44.3295C57.7694 44.4432 58.1652 44.6193 58.5099 44.858C58.8584 45.0966 59.133 45.4034 59.3338 45.7784C59.5346 46.1496 59.6349 46.5947 59.6349 47.1136V53H57.3395V51.7898H57.2713C57.1312 52.0625 56.9437 52.303 56.7088 52.5114C56.474 52.7159 56.1918 52.8769 55.8622 52.9943C55.5327 53.108 55.152 53.1648 54.7202 53.1648ZM55.4134 51.4943C55.7694 51.4943 56.0838 51.4242 56.3565 51.2841C56.6293 51.1402 56.8433 50.947 56.9986 50.7045C57.1539 50.4621 57.2315 50.1875 57.2315 49.8807V48.9545C57.1558 49.0038 57.0516 49.0492 56.919 49.0909C56.7902 49.1288 56.6444 49.1648 56.4815 49.1989C56.3187 49.2292 56.1558 49.2576 55.9929 49.2841C55.83 49.3068 55.6823 49.3277 55.5497 49.3466C55.2656 49.3883 55.0175 49.4545 54.8054 49.5455C54.5933 49.6364 54.4285 49.7595 54.3111 49.9148C54.1937 50.0663 54.1349 50.2557 54.1349 50.483C54.1349 50.8125 54.2543 51.0644 54.4929 51.2386C54.7353 51.4091 55.0421 51.4943 55.4134 51.4943Z" fill="black"/>
<path d="M17.8977 74.4545C17.1136 74.4545 16.4413 74.3466 15.8807 74.1307C15.3239 73.9186 14.8807 73.6288 14.5511 73.2614C14.2216 72.8939 14.0076 72.4811 13.9091 72.0227L16.1477 71.7216C16.2159 71.8958 16.3239 72.0587 16.4716 72.2102C16.6193 72.3617 16.8144 72.483 17.0568 72.5739C17.303 72.6686 17.6023 72.7159 17.9545 72.7159C18.4811 72.7159 18.9148 72.5871 19.2557 72.3295C19.6004 72.0758 19.7727 71.6496 19.7727 71.0511V69.4545H19.6705C19.5644 69.697 19.4053 69.9261 19.1932 70.142C18.9811 70.358 18.7083 70.5341 18.375 70.6705C18.0417 70.8068 17.6439 70.875 17.1818 70.875C16.5265 70.875 15.9299 70.7235 15.392 70.4205C14.858 70.1136 14.4318 69.6458 14.1136 69.017C13.7992 68.3845 13.642 67.5852 13.642 66.6193C13.642 65.6307 13.803 64.8049 14.125 64.142C14.447 63.4792 14.875 62.983 15.4091 62.6534C15.947 62.3239 16.536 62.1591 17.1761 62.1591C17.6648 62.1591 18.0739 62.2424 18.4034 62.4091C18.733 62.572 18.9981 62.7765 19.1989 63.0227C19.4034 63.2652 19.5606 63.5038 19.6705 63.7386H19.7614V62.2727H22.1648V71.0852C22.1648 71.8277 21.983 72.4489 21.6193 72.9489C21.2557 73.4489 20.7519 73.8239 20.108 74.0739C19.4678 74.3277 18.7311 74.4545 17.8977 74.4545ZM17.9489 69.0568C18.339 69.0568 18.6686 68.9602 18.9375 68.767C19.2102 68.5701 19.4186 68.2898 19.5625 67.9261C19.7102 67.5587 19.7841 67.1193 19.7841 66.608C19.7841 66.0966 19.7121 65.6534 19.5682 65.2784C19.4242 64.8996 19.2159 64.6061 18.9432 64.3977C18.6705 64.1894 18.339 64.0852 17.9489 64.0852C17.5511 64.0852 17.2159 64.1932 16.9432 64.4091C16.6705 64.6212 16.464 64.9167 16.3239 65.2955C16.1837 65.6742 16.1136 66.1117 16.1136 66.608C16.1136 67.1117 16.1837 67.5473 16.3239 67.9148C16.4678 68.2784 16.6742 68.5606 16.9432 68.7614C17.2159 68.9583 17.5511 69.0568 17.9489 69.0568ZM28.0341 71.1705C27.1515 71.1705 26.3883 70.983 25.7443 70.608C25.1042 70.2292 24.6098 69.7027 24.2614 69.0284C23.9129 68.3504 23.7386 67.5644 23.7386 66.6705C23.7386 65.7689 23.9129 64.9811 24.2614 64.3068C24.6098 63.6288 25.1042 63.1023 25.7443 62.7273C26.3883 62.3485 27.1515 62.1591 28.0341 62.1591C28.9167 62.1591 29.678 62.3485 30.3182 62.7273C30.9621 63.1023 31.4583 63.6288 31.8068 64.3068C32.1553 64.9811 32.3295 65.7689 32.3295 66.6705C32.3295 67.5644 32.1553 68.3504 31.8068 69.0284C31.4583 69.7027 30.9621 70.2292 30.3182 70.608C29.678 70.983 28.9167 71.1705 28.0341 71.1705ZM28.0455 69.2955C28.447 69.2955 28.7822 69.1818 29.0511 68.9545C29.3201 68.7235 29.5227 68.4091 29.6591 68.0114C29.7992 67.6136 29.8693 67.161 29.8693 66.6534C29.8693 66.1458 29.7992 65.6932 29.6591 65.2955C29.5227 64.8977 29.3201 64.5833 29.0511 64.3523C28.7822 64.1212 28.447 64.0057 28.0455 64.0057C27.6402 64.0057 27.2992 64.1212 27.0227 64.3523C26.75 64.5833 26.5436 64.8977 26.4034 65.2955C26.267 65.6932 26.1989 66.1458 26.1989 66.6534C26.1989 67.161 26.267 67.6136 26.4034 68.0114C26.5436 68.4091 26.75 68.7235 27.0227 68.9545C27.2992 69.1818 27.6402 69.2955 28.0455 69.2955ZM37.8466 71.1705C36.964 71.1705 36.2008 70.983 35.5568 70.608C34.9167 70.2292 34.4223 69.7027 34.0739 69.0284C33.7254 68.3504 33.5511 67.5644 33.5511 66.6705C33.5511 65.7689 33.7254 64.9811 34.0739 64.3068C34.4223 63.6288 34.9167 63.1023 35.5568 62.7273C36.2008 62.3485 36.964 62.1591 37.8466 62.1591C38.7292 62.1591 39.4905 62.3485 40.1307 62.7273C40.7746 63.1023 41.2708 63.6288 41.6193 64.3068C41.9678 64.9811 42.142 65.7689 42.142 66.6705C42.142 67.5644 41.9678 68.3504 41.6193 69.0284C41.2708 69.7027 40.7746 70.2292 40.1307 70.608C39.4905 70.983 38.7292 71.1705 37.8466 71.1705ZM37.858 69.2955C38.2595 69.2955 38.5947 69.1818 38.8636 68.9545C39.1326 68.7235 39.3352 68.4091 39.4716 68.0114C39.6117 67.6136 39.6818 67.161 39.6818 66.6534C39.6818 66.1458 39.6117 65.6932 39.4716 65.2955C39.3352 64.8977 39.1326 64.5833 38.8636 64.3523C38.5947 64.1212 38.2595 64.0057 37.858 64.0057C37.4527 64.0057 37.1117 64.1212 36.8352 64.3523C36.5625 64.5833 36.3561 64.8977 36.2159 65.2955C36.0795 65.6932 36.0114 66.1458 36.0114 66.6534C36.0114 67.161 36.0795 67.6136 36.2159 68.0114C36.3561 68.4091 36.5625 68.7235 36.8352 68.9545C37.1117 69.1818 37.4527 69.2955 37.858 69.2955ZM46.9318 71.142C46.2689 71.142 45.6686 70.9716 45.1307 70.6307C44.5966 70.286 44.1723 69.7803 43.858 69.1136C43.5473 68.4432 43.392 67.6212 43.392 66.6477C43.392 65.6477 43.553 64.8163 43.875 64.1534C44.197 63.4867 44.625 62.9886 45.1591 62.6591C45.697 62.3258 46.286 62.1591 46.9261 62.1591C47.4148 62.1591 47.822 62.2424 48.1477 62.4091C48.4773 62.572 48.7424 62.7765 48.9432 63.0227C49.1477 63.2652 49.303 63.5038 49.4091 63.7386H49.483V59.3636H51.8977V71H49.5114V69.6023H49.4091C49.2955 69.8447 49.1345 70.0852 48.9261 70.3239C48.7216 70.5587 48.4545 70.7538 48.125 70.9091C47.7992 71.0644 47.4015 71.142 46.9318 71.142ZM47.6989 69.2159C48.089 69.2159 48.4186 69.1098 48.6875 68.8977C48.9602 68.6818 49.1686 68.3807 49.3125 67.9943C49.4602 67.608 49.5341 67.1553 49.5341 66.6364C49.5341 66.1174 49.4621 65.6667 49.3182 65.2841C49.1742 64.9015 48.9659 64.6061 48.6932 64.3977C48.4205 64.1894 48.089 64.0852 47.6989 64.0852C47.3011 64.0852 46.9659 64.1932 46.6932 64.4091C46.4205 64.625 46.214 64.9242 46.0739 65.3068C45.9337 65.6894 45.8636 66.1326 45.8636 66.6364C45.8636 67.1439 45.9337 67.5928 46.0739 67.983C46.2178 68.3693 46.4242 68.6723 46.6932 68.892C46.9659 69.108 47.3011 69.2159 47.6989 69.2159ZM60.8068 71.142C60.1439 71.142 59.5436 70.9716 59.0057 70.6307C58.4716 70.286 58.0473 69.7803 57.733 69.1136C57.4223 68.4432 57.267 67.6212 57.267 66.6477C57.267 65.6477 57.428 64.8163 57.75 64.1534C58.072 63.4867 58.5 62.9886 59.0341 62.6591C59.572 62.3258 60.161 62.1591 60.8011 62.1591C61.2898 62.1591 61.697 62.2424 62.0227 62.4091C62.3523 62.572 62.6174 62.7765 62.8182 63.0227C63.0227 63.2652 63.178 63.5038 63.2841 63.7386H63.358V59.3636H65.7727V71H63.3864V69.6023H63.2841C63.1705 69.8447 63.0095 70.0852 62.8011 70.3239C62.5966 70.5587 62.3295 70.7538 62 70.9091C61.6742 71.0644 61.2765 71.142 60.8068 71.142ZM61.5739 69.2159C61.964 69.2159 62.2936 69.1098 62.5625 68.8977C62.8352 68.6818 63.0436 68.3807 63.1875 67.9943C63.3352 67.608 63.4091 67.1553 63.4091 66.6364C63.4091 66.1174 63.3371 65.6667 63.1932 65.2841C63.0492 64.9015 62.8409 64.6061 62.5682 64.3977C62.2955 64.1894 61.964 64.0852 61.5739 64.0852C61.1761 64.0852 60.8409 64.1932 60.5682 64.4091C60.2955 64.625 60.089 64.9242 59.9489 65.3068C59.8087 65.6894 59.7386 66.1326 59.7386 66.6364C59.7386 67.1439 59.8087 67.5928 59.9489 67.983C60.0928 68.3693 60.2992 68.6723 60.5682 68.892C60.8409 69.108 61.1761 69.2159 61.5739 69.2159ZM70.2514 71.1648C69.6946 71.1648 69.1984 71.0682 68.7628 70.875C68.3272 70.678 67.9825 70.3883 67.7287 70.0057C67.4787 69.6193 67.3537 69.1383 67.3537 68.5625C67.3537 68.0777 67.4427 67.6705 67.6207 67.3409C67.7988 67.0114 68.0412 66.7462 68.348 66.5455C68.6548 66.3447 69.0033 66.1932 69.3935 66.0909C69.7874 65.9886 70.2003 65.9167 70.6321 65.875C71.1397 65.822 71.5488 65.7727 71.8594 65.7273C72.17 65.678 72.3954 65.6061 72.5355 65.5114C72.6757 65.4167 72.7457 65.2765 72.7457 65.0909V65.0568C72.7457 64.697 72.6321 64.4186 72.4048 64.2216C72.1813 64.0246 71.8632 63.9261 71.4503 63.9261C71.0147 63.9261 70.6681 64.0227 70.4105 64.2159C70.1529 64.4053 69.9825 64.6439 69.8991 64.9318L67.6605 64.75C67.7741 64.2197 67.9976 63.7614 68.331 63.375C68.6643 62.9848 69.0942 62.6856 69.6207 62.4773C70.151 62.2652 70.7647 62.1591 71.4616 62.1591C71.9465 62.1591 72.4105 62.2159 72.8537 62.3295C73.3007 62.4432 73.6965 62.6193 74.0412 62.858C74.3897 63.0966 74.6643 63.4034 74.8651 63.7784C75.0658 64.1496 75.1662 64.5947 75.1662 65.1136V71H72.8707V69.7898H72.8026C72.6624 70.0625 72.4749 70.303 72.2401 70.5114C72.0052 70.7159 71.723 70.8769 71.3935 70.9943C71.0639 71.108 70.6832 71.1648 70.2514 71.1648ZM70.9446 69.4943C71.3007 69.4943 71.6151 69.4242 71.8878 69.2841C72.1605 69.1402 72.3745 68.947 72.5298 68.7045C72.6851 68.4621 72.7628 68.1875 72.7628 67.8807V66.9545C72.687 67.0038 72.5829 67.0492 72.4503 67.0909C72.3215 67.1288 72.1757 67.1648 72.0128 67.1989C71.8499 67.2292 71.687 67.2576 71.5241 67.2841C71.3613 67.3068 71.2135 67.3277 71.081 67.3466C70.7969 67.3883 70.5488 67.4545 70.3366 67.5455C70.1245 67.6364 69.9598 67.7595 69.8423 67.9148C69.7249 68.0663 69.6662 68.2557 69.6662 68.483C69.6662 68.8125 69.7855 69.0644 70.0241 69.2386C70.2666 69.4091 70.5734 69.4943 70.9446 69.4943ZM78.2259 74.2727C77.919 74.2727 77.6312 74.2481 77.3622 74.1989C77.0971 74.1534 76.8774 74.0947 76.7031 74.0227L77.2486 72.2159C77.5327 72.303 77.7884 72.3504 78.0156 72.358C78.2467 72.3655 78.4455 72.3125 78.6122 72.1989C78.7827 72.0852 78.9209 71.892 79.027 71.6193L79.169 71.25L76.0384 62.2727H78.5838L80.3906 68.6818H80.4815L82.3054 62.2727H84.8679L81.4759 71.9432C81.313 72.4129 81.0914 72.822 80.8111 73.1705C80.5346 73.5227 80.1842 73.7936 79.7599 73.983C79.3357 74.1761 78.8243 74.2727 78.2259 74.2727ZM86.9744 71.1477C86.5994 71.1477 86.2775 71.0152 86.0085 70.75C85.7434 70.4811 85.6108 70.1591 85.6108 69.7841C85.6108 69.4129 85.7434 69.0947 86.0085 68.8295C86.2775 68.5644 86.5994 68.4318 86.9744 68.4318C87.3381 68.4318 87.6563 68.5644 87.929 68.8295C88.2017 69.0947 88.3381 69.4129 88.3381 69.7841C88.3381 70.0341 88.2737 70.2633 88.1449 70.4716C88.0199 70.6761 87.8551 70.8409 87.6506 70.9659C87.446 71.0871 87.2206 71.1477 86.9744 71.1477ZM91.7401 71.1477C91.3651 71.1477 91.0431 71.0152 90.7741 70.75C90.509 70.4811 90.3764 70.1591 90.3764 69.7841C90.3764 69.4129 90.509 69.0947 90.7741 68.8295C91.0431 68.5644 91.3651 68.4318 91.7401 68.4318C92.1037 68.4318 92.4219 68.5644 92.6946 68.8295C92.9673 69.0947 93.1037 69.4129 93.1037 69.7841C93.1037 70.0341 93.0393 70.2633 92.9105 70.4716C92.7855 70.6761 92.6207 70.8409 92.4162 70.9659C92.2116 71.0871 91.9863 71.1477 91.7401 71.1477ZM96.5057 71.1477C96.1307 71.1477 95.8087 71.0152 95.5398 70.75C95.2746 70.4811 95.142 70.1591 95.142 69.7841C95.142 69.4129 95.2746 69.0947 95.5398 68.8295C95.8087 68.5644 96.1307 68.4318 96.5057 68.4318C96.8693 68.4318 97.1875 68.5644 97.4602 68.8295C97.733 69.0947 97.8693 69.4129 97.8693 69.7841C97.8693 70.0341 97.8049 70.2633 97.6761 70.4716C97.5511 70.6761 97.3864 70.8409 97.1818 70.9659C96.9773 71.0871 96.7519 71.1477 96.5057 71.1477Z" fill="black"/>
<path d="M75.8395 235.71C75.794 235.252 75.599 234.896 75.2543 234.642C74.9096 234.388 74.4418 234.261 73.8509 234.261C73.4493 234.261 73.1103 234.318 72.8338 234.432C72.5573 234.542 72.3452 234.695 72.1974 234.892C72.0535 235.089 71.9815 235.312 71.9815 235.562C71.974 235.771 72.0175 235.953 72.1122 236.108C72.2107 236.263 72.3452 236.398 72.5156 236.511C72.6861 236.621 72.883 236.718 73.1065 236.801C73.33 236.881 73.5687 236.949 73.8224 237.006L74.8679 237.256C75.3755 237.369 75.8414 237.521 76.2656 237.71C76.6899 237.9 77.0573 238.133 77.3679 238.409C77.6785 238.686 77.919 239.011 78.0895 239.386C78.2637 239.761 78.3527 240.191 78.3565 240.676C78.3527 241.388 78.1709 242.006 77.8111 242.528C77.455 243.047 76.9399 243.451 76.2656 243.739C75.5952 244.023 74.7865 244.165 73.8395 244.165C72.9001 244.165 72.0819 244.021 71.3849 243.733C70.6918 243.445 70.1501 243.019 69.7599 242.455C69.3736 241.886 69.1709 241.184 69.152 240.347H71.5327C71.5592 240.737 71.6709 241.062 71.8679 241.324C72.0687 241.581 72.3357 241.777 72.669 241.909C73.0062 242.038 73.3868 242.102 73.8111 242.102C74.2277 242.102 74.5895 242.042 74.8963 241.92C75.2069 241.799 75.4474 241.631 75.6179 241.415C75.7884 241.199 75.8736 240.951 75.8736 240.67C75.8736 240.409 75.7959 240.189 75.6406 240.011C75.4891 239.833 75.2656 239.682 74.9702 239.557C74.6785 239.432 74.3205 239.318 73.8963 239.216L72.6293 238.898C71.6482 238.659 70.8736 238.286 70.3054 237.778C69.7372 237.271 69.455 236.587 69.4588 235.727C69.455 235.023 69.6425 234.407 70.0213 233.881C70.4039 233.354 70.9285 232.943 71.5952 232.648C72.2618 232.352 73.0194 232.205 73.8679 232.205C74.7315 232.205 75.4853 232.352 76.1293 232.648C76.777 232.943 77.2808 233.354 77.6406 233.881C78.0005 234.407 78.1861 235.017 78.1974 235.71H75.8395ZM83.9091 244.17C83.0265 244.17 82.2633 243.983 81.6193 243.608C80.9792 243.229 80.4848 242.703 80.1364 242.028C79.7879 241.35 79.6136 240.564 79.6136 239.67C79.6136 238.769 79.7879 237.981 80.1364 237.307C80.4848 236.629 80.9792 236.102 81.6193 235.727C82.2633 235.348 83.0265 235.159 83.9091 235.159C84.7917 235.159 85.553 235.348 86.1932 235.727C86.8371 236.102 87.3333 236.629 87.6818 237.307C88.0303 237.981 88.2045 238.769 88.2045 239.67C88.2045 240.564 88.0303 241.35 87.6818 242.028C87.3333 242.703 86.8371 243.229 86.1932 243.608C85.553 243.983 84.7917 244.17 83.9091 244.17ZM83.9205 242.295C84.322 242.295 84.6572 242.182 84.9261 241.955C85.1951 241.723 85.3977 241.409 85.5341 241.011C85.6742 240.614 85.7443 240.161 85.7443 239.653C85.7443 239.146 85.6742 238.693 85.5341 238.295C85.3977 237.898 85.1951 237.583 84.9261 237.352C84.6572 237.121 84.322 237.006 83.9205 237.006C83.5152 237.006 83.1742 237.121 82.8977 237.352C82.625 237.583 82.4186 237.898 82.2784 238.295C82.142 238.693 82.0739 239.146 82.0739 239.653C82.0739 240.161 82.142 240.614 82.2784 241.011C82.4186 241.409 82.625 241.723 82.8977 241.955C83.1742 242.182 83.5152 242.295 83.9205 242.295ZM95.9872 232.364V244H93.527V232.364H95.9872ZM103.391 244L101.016 235.273H103.464L104.817 241.136H104.896L106.305 235.273H108.709L110.141 241.102H110.214L111.544 235.273H113.987L111.618 244H109.055L107.555 238.511H107.447L105.947 244H103.391ZM119.037 244.17C118.139 244.17 117.366 243.989 116.719 243.625C116.075 243.258 115.579 242.739 115.23 242.068C114.882 241.394 114.707 240.597 114.707 239.676C114.707 238.778 114.882 237.991 115.23 237.312C115.579 236.634 116.069 236.106 116.702 235.727C117.338 235.348 118.084 235.159 118.94 235.159C119.516 235.159 120.052 235.252 120.548 235.438C121.048 235.619 121.484 235.894 121.855 236.261C122.23 236.629 122.522 237.091 122.73 237.648C122.938 238.201 123.043 238.848 123.043 239.591V240.256H115.673V238.756H120.764C120.764 238.407 120.688 238.098 120.537 237.83C120.385 237.561 120.175 237.35 119.906 237.199C119.641 237.044 119.332 236.966 118.98 236.966C118.613 236.966 118.287 237.051 118.003 237.222C117.723 237.388 117.503 237.614 117.344 237.898C117.185 238.178 117.103 238.491 117.099 238.835V240.261C117.099 240.693 117.179 241.066 117.338 241.381C117.501 241.695 117.73 241.938 118.026 242.108C118.321 242.278 118.671 242.364 119.077 242.364C119.346 242.364 119.592 242.326 119.815 242.25C120.039 242.174 120.23 242.061 120.389 241.909C120.548 241.758 120.67 241.572 120.753 241.352L122.991 241.5C122.878 242.038 122.645 242.508 122.293 242.909C121.944 243.307 121.493 243.617 120.94 243.841C120.391 244.061 119.757 244.17 119.037 244.17ZM127.043 238.955V244H124.622V235.273H126.929V236.812H127.031C127.224 236.305 127.548 235.903 128.003 235.608C128.457 235.309 129.009 235.159 129.656 235.159C130.262 235.159 130.791 235.292 131.241 235.557C131.692 235.822 132.043 236.201 132.293 236.693C132.543 237.182 132.668 237.765 132.668 238.443V244H130.247V238.875C130.251 238.341 130.115 237.924 129.838 237.625C129.562 237.322 129.181 237.17 128.696 237.17C128.37 237.17 128.082 237.241 127.832 237.381C127.586 237.521 127.393 237.725 127.253 237.994C127.116 238.259 127.046 238.58 127.043 238.955ZM139.217 235.273V237.091H133.962V235.273H139.217ZM135.155 233.182H137.575V241.318C137.575 241.542 137.609 241.716 137.678 241.841C137.746 241.962 137.84 242.047 137.962 242.097C138.087 242.146 138.231 242.17 138.393 242.17C138.507 242.17 138.621 242.161 138.734 242.142C138.848 242.119 138.935 242.102 138.996 242.091L139.376 243.892C139.255 243.93 139.085 243.973 138.865 244.023C138.645 244.076 138.378 244.108 138.064 244.119C137.481 244.142 136.969 244.064 136.53 243.886C136.094 243.708 135.755 243.432 135.513 243.057C135.27 242.682 135.151 242.208 135.155 241.636V233.182ZM146.918 238.955V244H144.497V232.364H146.849V236.812H146.952C147.149 236.297 147.467 235.894 147.906 235.602C148.346 235.307 148.897 235.159 149.56 235.159C150.166 235.159 150.694 235.292 151.145 235.557C151.599 235.818 151.952 236.195 152.202 236.688C152.455 237.176 152.58 237.761 152.577 238.443V244H150.156V238.875C150.16 238.337 150.024 237.919 149.747 237.619C149.474 237.32 149.092 237.17 148.599 237.17C148.27 237.17 147.978 237.241 147.724 237.381C147.474 237.521 147.277 237.725 147.134 237.994C146.993 238.259 146.921 238.58 146.918 238.955ZM158.425 244.17C157.542 244.17 156.779 243.983 156.135 243.608C155.495 243.229 155 242.703 154.652 242.028C154.304 241.35 154.129 240.564 154.129 239.67C154.129 238.769 154.304 237.981 154.652 237.307C155 236.629 155.495 236.102 156.135 235.727C156.779 235.348 157.542 235.159 158.425 235.159C159.307 235.159 160.069 235.348 160.709 235.727C161.353 236.102 161.849 236.629 162.197 237.307C162.546 237.981 162.72 238.769 162.72 239.67C162.72 240.564 162.546 241.35 162.197 242.028C161.849 242.703 161.353 243.229 160.709 243.608C160.069 243.983 159.307 244.17 158.425 244.17ZM158.436 242.295C158.838 242.295 159.173 242.182 159.442 241.955C159.711 241.723 159.913 241.409 160.05 241.011C160.19 240.614 160.26 240.161 160.26 239.653C160.26 239.146 160.19 238.693 160.05 238.295C159.913 237.898 159.711 237.583 159.442 237.352C159.173 237.121 158.838 237.006 158.436 237.006C158.031 237.006 157.69 237.121 157.413 237.352C157.141 237.583 156.934 237.898 156.794 238.295C156.658 238.693 156.589 239.146 156.589 239.653C156.589 240.161 156.658 240.614 156.794 241.011C156.934 241.409 157.141 241.723 157.413 241.955C157.69 242.182 158.031 242.295 158.436 242.295ZM164.294 244V235.273H166.601V236.812H166.703C166.885 236.301 167.188 235.898 167.612 235.602C168.036 235.307 168.544 235.159 169.135 235.159C169.733 235.159 170.243 235.309 170.663 235.608C171.084 235.903 171.364 236.305 171.504 236.812H171.595C171.773 236.312 172.095 235.913 172.561 235.614C173.031 235.311 173.586 235.159 174.226 235.159C175.04 235.159 175.701 235.419 176.209 235.938C176.72 236.453 176.976 237.184 176.976 238.131V244H174.561V238.608C174.561 238.123 174.432 237.759 174.175 237.517C173.917 237.275 173.595 237.153 173.209 237.153C172.769 237.153 172.427 237.294 172.18 237.574C171.934 237.85 171.811 238.216 171.811 238.67V244H169.464V238.557C169.464 238.129 169.341 237.788 169.095 237.534C168.853 237.28 168.533 237.153 168.135 237.153C167.866 237.153 167.624 237.222 167.408 237.358C167.196 237.491 167.027 237.678 166.902 237.92C166.777 238.159 166.714 238.439 166.714 238.761V244H164.294ZM182.865 244.17C181.967 244.17 181.195 243.989 180.547 243.625C179.903 243.258 179.407 242.739 179.058 242.068C178.71 241.394 178.536 240.597 178.536 239.676C178.536 238.778 178.71 237.991 179.058 237.312C179.407 236.634 179.897 236.106 180.53 235.727C181.166 235.348 181.912 235.159 182.768 235.159C183.344 235.159 183.88 235.252 184.376 235.438C184.876 235.619 185.312 235.894 185.683 236.261C186.058 236.629 186.35 237.091 186.558 237.648C186.767 238.201 186.871 238.848 186.871 239.591V240.256H179.501V238.756H184.592C184.592 238.407 184.517 238.098 184.365 237.83C184.214 237.561 184.003 237.35 183.734 237.199C183.469 237.044 183.161 236.966 182.808 236.966C182.441 236.966 182.115 237.051 181.831 237.222C181.551 237.388 181.331 237.614 181.172 237.898C181.013 238.178 180.931 238.491 180.928 238.835V240.261C180.928 240.693 181.007 241.066 181.166 241.381C181.329 241.695 181.558 241.938 181.854 242.108C182.149 242.278 182.5 242.364 182.905 242.364C183.174 242.364 183.42 242.326 183.643 242.25C183.867 242.174 184.058 242.061 184.217 241.909C184.376 241.758 184.498 241.572 184.581 241.352L186.82 241.5C186.706 242.038 186.473 242.508 186.121 242.909C185.772 243.307 185.321 243.617 184.768 243.841C184.219 244.061 183.585 244.17 182.865 244.17Z" fill="black"/>
</svg>
