<svg width="256" height="256" viewBox="0 0 256 256" fill="none" xmlns="http://www.w3.org/2000/svg">
<path d="M123.694 105.625C123.694 106.226 123.272 106.757 123.117 107.331C123.047 107.591 122.923 107.829 122.923 108.103C122.923 108.413 123.018 108.445 123.309 108.47C123.517 108.488 123.57 108.514 123.76 108.387C124 108.227 124.212 108.057 124.403 107.836C124.638 107.563 124.707 107.163 124.852 106.841C125.082 106.33 125.035 105.807 125.035 105.26" stroke="white" stroke-width="3" stroke-linecap="round"/>
<path d="M135.878 109.646C135.87 109.34 135.761 109.034 135.652 108.752C135.461 108.262 135.268 107.787 135.268 107.25C135.268 106.618 135.218 105.985 135.228 105.35C135.231 105.137 135.285 104.903 135.318 104.691C135.351 104.479 135.322 104.26 135.359 104.051C135.421 103.689 135.423 103.296 135.535 102.945C135.604 102.726 135.726 102.295 135.999 102.295C136.283 102.295 136.215 102.517 136.153 102.742C136.05 103.111 135.878 103.4 135.878 103.798C135.878 104.204 135.912 104.541 135.999 104.935C136.038 105.11 136.074 105.297 136.141 105.463C136.197 105.599 136.243 106.041 136.243 105.894C136.243 105.222 136.238 104.551 136.243 103.879C136.246 103.45 136.369 103.065 136.527 102.67C136.616 102.447 136.649 102.509 136.649 102.719C136.649 103.449 136.617 104.167 136.577 104.894C136.54 105.562 136.506 106.226 136.568 106.893C136.571 106.922 136.578 107.171 136.654 107.074C136.841 106.833 136.927 106.448 137.012 106.165C137.301 105.205 137.492 104.141 137.459 103.135C137.45 102.846 137.397 102.58 137.073 102.58C136.601 102.58 136.34 103.452 136.202 103.798C135.825 104.749 135.844 105.849 135.805 106.857C135.779 107.535 135.711 108.221 135.805 108.897C135.811 108.936 135.895 109.285 135.959 109.158" stroke="white" stroke-width="3" stroke-linecap="round"/>
<path d="M124.385 105.341C124.385 106.067 124.324 106.598 123.794 107.128C123.666 107.256 123.551 107.388 123.388 107.473C123.239 107.55 123.059 107.606 122.923 107.696" stroke="white" stroke-width="3" stroke-linecap="round"/>
<path d="M155.918 100.834C156.188 100.84 156.421 100.979 156.69 100.979C156.836 100.979 157.061 101.015 157.191 101.08C157.338 101.154 157.518 101.141 157.664 101.206C157.758 101.248 157.988 101.225 158.056 101.278C158.211 101.402 158.255 101.327 158.31 101.561C158.353 101.745 158.351 102.066 158.29 102.244C157.987 103.12 158.162 104.136 158.136 105.052C158.128 105.351 157.95 105.693 157.846 105.969C157.749 106.224 157.736 106.519 157.736 106.789C157.736 107.301 157.736 107.812 157.736 108.324C157.736 108.55 157.86 109.186 157.547 109.197C157.403 109.202 157.261 109.206 157.126 109.152C157.05 109.122 156.999 109.038 156.908 109.007C156.841 108.983 156.751 108.942 156.69 108.906C156.583 108.842 156.408 108.845 156.318 108.76C156.237 108.683 156.246 108.488 156.246 108.389C156.246 107.963 156.35 107.624 156.456 107.213C156.537 106.897 156.657 106.573 156.71 106.252C156.745 106.042 156.718 105.809 156.718 105.597C156.718 104.877 156.767 104.096 156.508 103.424C156.484 103.36 156.474 103.274 156.436 103.226C156.33 103.094 156.355 103.393 156.355 103.488C156.355 104.276 156.31 105.062 156.318 105.852C156.324 106.374 156.426 106.969 156.601 107.459C156.683 107.688 156.82 107.67 157.038 107.67C157.414 107.67 157.73 107.546 158.1 107.524C158.343 107.51 158.173 106.052 158.173 105.852C158.173 105.354 158.113 104.828 158.31 104.361C158.361 104.24 158.38 104.068 158.391 103.933C158.4 103.82 158.489 103.628 158.355 103.561" stroke="black" stroke-width="3" stroke-linecap="round"/>
<path d="M104.143 100.434C103.149 100.434 102.127 100.361 101.143 100.507C100.583 100.59 100.061 100.87 99.4885 100.87C99.1249 100.87 98.7613 100.87 98.3977 100.87C98.1177 100.87 97.8002 100.844 97.5615 100.725" stroke="black" stroke-width="3" stroke-linecap="round"/>
<path d="M105.233 108.251C104.615 108.251 103.997 108.256 103.379 108.251C102.767 108.246 102.148 108.107 101.545 108.017C100.88 107.918 100.195 107.96 99.5249 107.96C99.0884 107.96 98.648 107.924 98.2159 107.924C97.9947 107.924 97.7186 107.948 97.5251 107.851" stroke="black" stroke-width="3" stroke-linecap="round"/>
<path d="M97.8159 102.07C97.8159 102.594 97.8125 103.118 97.8159 103.642C97.8195 104.185 97.9388 104.737 98.0705 105.264C98.1174 105.452 98.2058 105.695 98.2159 105.888C98.2296 106.148 98.4801 105.416 98.4926 105.383C98.7671 104.667 98.961 103.904 99.2784 103.205C99.3143 103.126 99.5116 102.718 99.6157 102.694C99.796 102.654 99.921 104.966 100.032 105.244C100.062 105.318 100.038 105.083 100.05 105.003C100.111 104.605 100.225 104.214 100.323 103.824C100.406 103.491 100.475 103.156 100.551 102.822C100.553 102.813 100.626 102.533 100.644 102.551C100.671 102.579 100.667 102.72 100.674 102.753C100.735 103.042 100.791 103.327 100.834 103.62C100.924 104.233 100.974 104.856 101.044 105.472C101.098 105.947 101.25 105.381 101.31 105.189C101.621 104.197 101.888 103.167 102.09 102.147C102.101 102.092 102.114 101.941 102.145 101.987C102.278 102.188 102.311 102.501 102.363 102.727C102.546 103.526 102.631 104.342 102.789 105.145C102.836 105.384 102.915 104.696 102.922 104.656C103.045 103.992 103.227 103.333 103.306 102.662C103.386 101.982 103.561 104.016 103.561 104.7C103.561 104.783 103.578 104.891 103.553 104.971C103.53 105.04 103.524 104.715 103.524 104.7C103.528 104.171 103.538 103.619 103.615 103.094C103.66 102.79 103.669 103.035 103.706 103.205C103.816 103.711 103.924 104.209 103.977 104.724C104.016 105.104 103.997 105.491 103.997 105.872C103.997 106.086 104.01 106.071 103.977 105.858C103.817 104.829 103.743 103.801 103.743 102.761C103.743 102.519 103.743 102.278 103.743 102.036C103.743 101.985 103.743 101.78 103.743 101.941C103.743 102.38 103.849 102.818 103.908 103.252C103.967 103.683 103.997 104.09 103.997 104.524C103.997 104.795 104.041 105.108 103.969 105.371C103.924 105.535 104.059 105.909 103.916 106.025C103.739 106.171 103.111 105.766 102.981 105.686C102.656 105.486 102.337 105.284 102.005 105.096C101.762 104.959 101.324 104.943 101.052 104.987C100.583 105.064 100.151 105.347 99.7996 105.652C99.5731 105.848 99.4821 106.163 99.234 106.342C98.8783 106.599 98.3353 106.823 97.9089 106.579C97.7383 106.481 97.6386 106.432 97.6786 106.207C97.7151 106.002 97.8084 105.793 97.8159 105.589C97.829 105.238 97.8887 104.901 97.8887 104.543C97.8887 104.09 97.8159 103.653 97.8159 103.205C97.8159 102.9 97.7796 101.982 97.7796 102.288" stroke="black" stroke-width="3" stroke-linecap="round"/>
<path d="M122.689 98.5231C122.736 98.5321 123.026 98.622 123.085 98.5581C123.19 98.4426 123.225 98.0675 123.225 97.9175C123.225 97.8335 123.102 97.6198 123.167 97.6723C123.236 97.7273 123.401 97.8694 123.39 97.9726C123.383 98.0308 122.684 97.6042 122.644 97.5772C122.289 97.3369 121.972 97.0349 121.588 96.8365C121.225 96.6486 120.942 96.3116 120.562 96.1708C120.047 95.9801 119.462 95.6854 118.906 95.6854C118.879 95.6854 118.693 95.6854 118.78 95.6854C119.105 95.6854 119.459 95.775 119.766 95.8706C121.308 96.3489 122.841 97.1792 123.723 98.5706C124.104 99.1731 124.613 99.9159 124.706 100.65C124.799 101.386 125.027 102.168 124.628 102.845C124.403 103.228 124.214 103.623 123.995 104.008C123.925 104.133 123.829 104.447 123.65 104.274C123.293 103.928 123.093 103.363 122.889 102.925C122.512 102.113 122.154 101.293 121.841 100.455C121.588 99.778 121.346 99.1834 120.935 98.5906C120.655 98.1877 120.396 97.7688 120.122 97.362C119.869 96.9879 119.563 96.6132 119.243 96.2935C119.119 96.1688 119.017 96.0223 118.891 95.8956C118.794 95.7994 118.667 95.7993 118.555 95.7304C118.376 95.6202 118.225 95.4869 118.05 95.3701" stroke="white" stroke-width="3" stroke-linecap="round"/>
<path d="M110.798 96.271C110.079 96.5289 109.71 97.0125 109.266 97.5972C108.97 97.988 108.703 98.3731 108.511 98.8284C108.327 99.2639 108.206 99.813 108.188 100.282C108.156 101.113 108.108 101.936 108.185 102.767C108.289 103.871 108.399 104.9 108.703 105.973C108.937 106.796 109.254 107.705 109.817 108.367C109.876 108.437 110.007 108.634 110.097 108.673C110.142 108.692 109.981 108.249 109.967 108.21C109.914 108.065 109.848 107.922 109.784 107.782C109.732 107.668 109.76 107.517 109.737 107.394C109.546 106.36 109.1 105.481 108.568 104.579C108.212 103.974 107.755 103.229 107.6 102.532C107.567 102.385 107.465 101.951 107.465 102.101C107.465 102.224 107.504 102.337 107.535 102.454C107.679 103.004 107.871 103.541 108.03 104.086C108.278 104.931 108.452 105.921 108.951 106.666C109.3 107.185 109.823 107.655 110.312 108.037C111.102 108.653 111.808 109.292 112.417 110.097C112.713 110.487 113.001 110.922 113.41 111.205C113.556 111.306 113.808 111.484 113.996 111.495C114.088 111.501 113.803 111.514 113.731 111.57C113.522 111.735 113.235 111.916 112.96 111.901C112.522 111.876 112.252 111.302 111.879 111.125C111.709 111.045 111.081 110.763 111.161 110.484C111.232 110.235 112.59 110.803 112.725 110.865C113.203 111.085 113.645 111.415 114.154 111.563C114.665 111.711 115.149 111.926 115.673 112.046C116.649 112.269 117.743 112.274 118.735 112.151C119.239 112.088 119.734 111.939 120.209 111.766C120.73 111.576 121.27 111.437 121.788 111.243C122.49 110.98 123.26 110.738 123.915 110.369C124.451 110.068 124.907 109.629 125.284 109.151C125.72 108.598 126.209 108.002 126.45 107.331C126.548 107.059 126.55 106.824 126.598 106.541C126.678 106.069 126.788 105.584 126.788 105.104C126.788 104.594 126.645 103.987 126.495 103.503C126.411 103.231 126.429 102.946 126.328 102.677C126.293 102.585 126.297 102.71 126.29 102.732C126.281 102.764 126.065 102.286 126.045 102.234C125.828 101.679 125.733 100.92 125.312 100.47C124.976 100.111 124.676 99.7144 124.366 99.3339C124.037 98.9309 123.631 98.4668 123.15 98.2528C123.061 98.2136 122.509 97.9867 122.509 98.0426C122.509 98.2795 122.509 97.5689 122.509 97.332C122.509 97.0766 122.58 96.687 122.439 96.4561C122.304 96.2348 121.843 96.1401 121.608 96.1358C121.184 96.1281 120.767 96.1155 120.344 96.0933C119.24 96.0351 117.861 96.345 116.889 95.6854C116.803 95.6271 116.631 95.3896 116.611 95.6228C116.6 95.7522 116.705 96.4005 116.498 96.4061C115.806 96.4248 115.109 96.3683 114.419 96.4311C113.674 96.4988 112.964 96.7664 112.214 96.7664C112.104 96.7664 111.827 96.8152 111.791 96.6538C111.707 96.2722 112.969 96.0792 113.175 96.0457C113.608 95.9754 114.057 95.9923 114.471 95.843C114.786 95.7299 115.058 95.5404 115.365 95.4176C115.374 95.4138 115.317 95.4612 115.302 95.4702C114.742 95.8065 114.222 96.3054 113.726 96.7214C110.825 99.1512 108.042 101.897 105.791 104.949C105.73 105.031 105.216 105.677 105.358 105.855C105.473 105.999 105.714 106.122 105.888 106.17C106.13 106.238 106.397 106.39 106.654 106.29C106.813 106.229 106.904 106.104 106.959 105.945C107.121 105.477 107.211 104.958 107.275 104.469C107.355 103.854 107.33 103.228 107.33 102.609C107.33 102.236 107.355 101.852 107.327 101.478C107.321 101.4 107.195 100.954 107.059 101.148C106.891 101.389 106.903 101.849 106.889 102.127C106.864 102.633 106.949 103.116 107.159 103.578C107.494 104.314 107.826 105.011 108.275 105.685C108.731 106.368 109.12 107.1 109.547 107.802C109.743 108.126 110.003 108.39 110.237 108.685C110.608 109.15 110.976 109.602 111.421 109.999C111.55 110.114 111.991 110.388 111.834 110.314C111.782 110.29 111.707 110.263 111.664 110.224C111.489 110.067 111.785 110.779 111.814 110.845C112.094 111.483 112.596 112.002 113.05 112.521C113.331 112.843 113.583 112.963 113.986 113.072C114.489 113.208 115.102 113.117 115.617 113.117C116.266 113.117 116.945 113.229 117.584 113.097C118.597 112.887 119.6 112.493 120.187 111.606C120.761 110.737 121.253 109.682 121.453 108.658C121.56 108.11 121.576 107.543 121.633 106.989C121.711 106.234 121.8 105.484 121.853 104.726C121.915 103.848 121.813 102.998 121.653 102.137C121.615 101.929 121.573 101.715 121.493 101.518C121.479 101.483 121.293 101.171 121.293 101.293C121.293 101.318 121.305 100.878 121.318 100.775C121.368 100.361 121.428 99.9628 121.428 99.5441C121.428 99.1425 121.48 98.977 121.113 98.7933C120.88 98.6771 120.725 98.5057 120.525 98.3454C119.728 97.7078 118.512 98.2528 117.627 98.2528C117.224 98.2528 116.827 98.2789 116.428 98.3429C116.273 98.3679 115.315 98.4444 115.26 98.6382C115.19 98.8811 114.296 98.7454 114.066 98.7483C113.348 98.7574 112.479 98.9651 111.844 99.3239C111.612 99.4552 111.354 99.5938 111.163 99.7843C111.077 99.8709 111.016 100.004 110.978 100.12C110.851 100.508 110.767 100.928 110.673 101.326C110.392 102.508 110.246 103.682 110.755 104.829C111.008 105.398 111.425 105.895 111.789 106.396C112.089 106.809 112.43 107.274 112.85 107.577C113.239 107.857 113.619 108.149 114.006 108.432C114.048 108.464 114.602 108.833 114.571 108.873C114.548 108.903 114.418 108.862 114.501 108.893C115.368 109.214 116.194 109.919 117.184 109.594C117.615 109.452 117.947 109.203 118.297 108.928C118.764 108.563 119.019 107.77 119.256 107.251C119.889 105.863 119.913 104.216 119.897 102.712C119.891 102.227 119.909 101.551 119.669 101.116C119.407 100.64 118.901 100.465 118.383 100.465C117.299 100.465 116.631 101.26 115.718 101.701C115.214 101.944 114.719 102.075 114.159 102.034C113.88 102.013 112.675 102.083 112.69 101.811C112.712 101.392 113.66 101.209 113.968 101.161C114.373 101.098 114.908 101.078 115.282 101.271C115.36 101.311 115.327 101.391 115.402 101.428C115.775 101.615 116.304 101.618 116.708 101.629C116.918 101.634 117.245 101.565 117.439 101.676C117.576 101.754 117.076 102.039 117.061 102.049C115.518 103.091 113.839 103.754 112.054 104.244C111.771 104.321 111.447 104.393 111.186 104.534C111.116 104.571 111.745 104.559 111.819 104.559C112.839 104.559 113.863 104.587 114.882 104.529C116.117 104.458 117.344 104.284 118.575 104.173C118.825 104.151 119.075 104.153 119.326 104.153C119.345 104.153 119.253 104.234 119.251 104.236C119.064 104.431 118.853 104.599 118.645 104.772C117.997 105.309 117.366 105.872 116.698 106.386C116.206 106.765 115.671 107.087 115.187 107.477C115.018 107.612 115.069 107.608 115.287 107.622C116.247 107.684 117.208 107.73 118.17 107.757C118.646 107.77 119.121 107.792 119.596 107.802C119.773 107.806 119.637 107.912 119.576 107.997C119.205 108.515 118.73 109.037 118.6 109.684C118.533 110.019 119.17 109.983 119.376 110.077C119.531 110.147 119.537 110.324 119.336 110.324C118.859 110.324 118.429 109.983 118.072 109.706C117.05 108.914 116.13 107.949 115.25 107.004C114.676 106.387 114.153 105.727 113.591 105.102C113.441 104.935 112.973 104.456 113.15 104.594C113.253 104.674 113.483 104.515 113.548 104.456C113.758 104.268 113.925 104.019 114.094 103.796C114.555 103.183 115.017 102.573 115.502 101.979C116.149 101.189 116.831 100.437 117.524 99.6892C117.624 99.5814 117.749 99.3789 117.915 99.3789C118.063 99.3789 118.072 99.4577 118.185 99.514" stroke="white" stroke-width="3" stroke-linecap="round"/>
<path d="M139.445 94.7845C139.061 94.7845 138.586 94.706 138.229 94.8846C137.87 95.0639 137.477 95.2668 137.17 95.5277C136.117 96.4251 135.45 97.6382 134.806 98.8484C134.26 99.8725 133.8 101.065 133.735 102.237C133.699 102.866 133.725 103.503 133.725 104.133C133.725 104.643 133.696 105.157 133.792 105.66C133.892 106.182 134.202 106.627 134.4 107.116C134.505 107.374 134.648 107.607 134.823 107.822C134.952 107.979 134.736 107.753 134.693 107.667C134.587 107.456 134.517 107.23 134.4 107.026C134.139 106.569 134.358 105.775 133.635 105.775C133.077 105.775 132.738 106.205 132.383 106.576C132.288 106.676 132.05 106.946 132.173 107.104C132.304 107.272 132.536 107.415 132.689 107.577C132.991 107.896 133.207 108.373 133.387 108.773C133.946 110.02 134.826 111.078 135.797 112.036C136.769 112.996 137.954 113.409 139.25 113.68C139.86 113.808 140.529 113.846 141.152 113.88C141.57 113.903 141.982 113.868 142.383 113.738C143.252 113.455 144.062 113.124 144.89 112.739C145.525 112.444 146.186 112.107 146.877 111.971C147.329 111.882 147.776 111.775 148.218 111.651C148.321 111.622 148.453 111.611 148.534 111.53C148.548 111.516 148.43 111.541 148.409 111.55C148.318 111.588 148.365 111.362 148.394 111.315C148.688 110.833 149.526 110.641 149.995 110.369C150.236 110.23 150.585 109.973 150.708 109.706C151.004 109.064 151.551 108.577 151.717 107.867C151.823 107.415 151.877 106.781 151.877 106.431C151.877 105.335 152.267 104.328 152.57 103.288C152.714 102.793 152.688 102.295 152.688 101.786C152.688 101.661 152.638 101.486 152.598 101.351C152.421 100.761 152.227 100.188 151.977 99.6241C151.811 99.2508 151.631 98.8836 151.471 98.5081C151.432 98.4158 151.352 98.3049 151.294 98.4505C151.244 98.5739 151.191 98.2049 151.129 98.0877C150.924 97.706 150.737 97.3233 150.483 96.9716C150.261 96.6647 150.104 96.4037 149.75 96.281C149.545 96.2101 149.386 96.0452 149.174 95.9907C149.075 95.9652 148.556 95.8799 148.499 95.9807C148.44 96.0829 148.295 96.048 148.193 96.0432C147.542 96.0129 146.895 95.8074 146.267 95.6504C145.629 95.4909 144.947 95.245 144.29 95.1924C143.929 95.1636 143.611 95.1686 143.309 95.3701C142.693 95.7808 141.945 95.8208 141.247 95.9907C141.038 96.0414 140.855 96.0539 140.661 96.1458C140.603 96.1732 140.463 96.302 140.501 96.2509C140.822 95.8232 141.293 95.4585 141.712 95.1349C141.8 95.0669 143.071 94.2656 143.093 94.6494C143.102 94.7898 142.857 94.8364 142.758 94.8846C142.232 95.1417 141.665 95.3 141.144 95.5653C139.258 96.5259 137.726 98.3626 136.775 100.222C136.585 100.595 136.115 101.288 136.843 101.271C137.483 101.255 138.088 100.679 138.549 100.3C139.877 99.208 141.135 98.0042 142.35 96.7889C142.518 96.6211 142.702 96.381 142.918 96.2684C143.018 96.2165 142.885 96.4951 142.836 96.5963C141.942 98.4196 140.742 100.126 139.63 101.821C139.385 102.196 139.129 102.564 138.89 102.942C138.869 102.975 138.646 103.301 138.869 103.162C139.715 102.639 140.491 101.932 141.262 101.311C142.58 100.249 143.878 99.1622 145.16 98.0576C145.79 97.5156 146.415 96.9686 147.057 96.4411C147.166 96.3516 147.363 96.1934 147.483 96.0958C147.523 96.0628 147.556 95.9724 147.603 95.9957C147.647 96.0179 147.536 96.0691 147.503 96.1058C147.364 96.2576 147.331 96.2939 147.177 96.4561C146.653 97.0101 146.138 97.5706 145.633 98.1427C145.243 98.5847 144.851 99.0228 144.477 99.479C144.424 99.5438 144.614 99.382 144.683 99.3339C145.14 99.0127 145.591 98.6893 146.026 98.3379C146.087 98.2893 146.844 97.5777 146.947 97.6873C147.078 97.8256 146.275 98.9833 146.199 99.1061C146.129 99.2182 145.313 100.349 145.458 100.467C145.573 100.56 145.928 100.372 146.019 100.332C146.425 100.157 146.82 99.9482 147.21 99.7392C147.725 99.4637 148.235 99.1236 148.801 98.9585C148.881 98.9352 148.899 98.9815 148.866 99.0536C148.733 99.3518 148.456 99.6248 148.263 99.8844C147.861 100.426 147.378 100.951 147.032 101.531C146.772 101.967 147.344 101.618 147.528 101.526C148.198 101.191 148.817 100.767 149.495 100.445C149.609 100.39 149.721 100.316 149.837 100.267C149.985 100.206 149.657 100.533 149.56 100.66C149.143 101.205 148.692 101.717 148.293 102.277C147.948 102.762 148.586 102.444 148.824 102.332C149.273 102.12 149.703 101.866 150.145 101.641C150.389 101.517 149.894 102.038 149.862 102.079C149.322 102.784 148.796 103.51 148.291 104.241C148.263 104.282 147.765 104.92 148.088 104.799C148.684 104.576 149.243 104.234 149.81 103.948C149.856 103.925 150.43 103.698 150.43 103.633C150.43 103.461 150.216 103.178 150.145 103.03C150.013 102.756 149.9 102.469 149.76 102.199C149.602 101.895 149.467 101.618 149.545 101.261C149.561 101.185 149.845 100.662 149.985 100.795C150.464 101.25 150.706 101.949 150.706 102.597C150.706 103.314 150.288 103.884 150.008 104.516C149.827 104.924 149.615 105.335 149.515 105.772C149.479 105.927 149.354 106.163 149.354 106.315C149.354 106.584 148.696 107.497 148.363 107.847C148.131 108.092 147.939 108.373 147.743 108.648C147.515 108.966 147.338 109.323 146.942 109.446C146.426 109.606 145.898 109.681 145.411 109.929C144.725 110.278 143.945 110.431 143.231 110.75C142.441 111.103 141.561 111.315 140.696 111.315C140.423 111.315 140.165 111.319 139.895 111.27C139.732 111.24 139.577 111.201 139.418 111.16C139.316 111.134 139.039 111.152 138.96 111.08C138.879 111.007 138.871 110.637 138.849 110.539C138.8 110.313 138.648 110.032 138.409 109.964C138.134 109.885 137.737 109.7 137.518 109.504C137.406 109.402 137.376 109.16 137.373 109.018C137.366 108.637 137.288 108.124 137.466 107.779C137.704 107.317 137.919 106.826 138.194 106.386C138.678 105.61 139.361 104.963 139.956 104.274C140.191 104 139.841 104.366 139.78 104.451C139.533 104.801 139.277 105.143 139.042 105.502C138.76 105.934 138.555 106.321 138.419 106.811C138.24 107.455 137.947 108.055 137.688 108.668C137.503 109.107 137.266 109.572 137.035 109.986C136.97 110.104 136.89 110.256 137.013 110.314C137.238 110.421 137.469 110.43 137.716 110.412C138.033 110.388 138.325 110.25 138.619 110.142C139.217 109.921 139.783 109.621 140.363 109.358C141.366 108.905 142.244 108.412 143.093 107.712C143.991 106.972 144.966 106.318 145.886 105.605C146.358 105.239 146.868 104.908 147.318 104.514C147.517 104.339 147.68 104.137 147.908 103.998C147.998 103.943 148.211 103.855 148.273 103.996C148.327 104.116 148.323 104.214 148.291 104.344C148.164 104.851 147.785 105.364 147.488 105.785C146.829 106.718 145.866 107.802 144.625 107.802C144.17 107.802 143.746 107.753 143.364 107.487C142.973 107.214 142.853 106.574 142.871 106.13C142.908 105.208 143.577 104.272 144.18 103.618C144.358 103.425 144.571 103.207 144.83 103.127C145.142 103.032 144.49 102.831 144.422 102.807C142.592 102.159 141.343 103.571 140.716 105.089C140.632 105.293 140.519 105.516 140.596 105.737C140.696 106.022 140.84 106.089 141.042 106.29C141.166 106.415 141.347 106.58 141.147 106.721C140.831 106.943 140.404 107.118 140.141 107.399C140.093 107.449 139.45 107.967 139.41 107.927C139.344 107.861 139.399 107.488 139.4 107.412C139.411 106.125 139.949 104.967 140.516 103.833C141.143 102.579 141.819 101.262 142.676 100.145C142.953 99.7827 143.244 99.55 143.689 99.4264C144.246 99.2717 144.824 99.1987 145.401 99.1987C145.823 99.1987 145.921 99.2438 145.976 99.6792C146.051 100.272 146.052 100.934 145.856 101.506C145.501 102.543 144.647 103.5 143.804 104.168C142.944 104.85 141.991 105.251 140.896 105.34C140.244 105.392 139.534 105.453 138.935 105.144C138.721 105.034 138.26 104.83 138.149 104.594C138.023 104.328 138.296 103.911 138.414 103.718C138.938 102.865 139.625 102.092 140.351 101.406C141.024 100.769 141.764 100.2 142.533 99.6842C142.91 99.4314 143.305 99.1676 143.749 99.0486C144.294 98.9024 144.6 99.0599 144.803 99.5741C145.283 100.791 145.16 102.785 143.894 103.493C143.514 103.705 141.824 104.309 141.857 103.423C141.876 102.921 142.374 102.457 142.708 102.152C143.425 101.496 144.343 100.804 145.318 100.605C145.946 100.477 146.208 100.962 146.302 101.506C146.436 102.284 146.188 102.97 145.774 103.623C145.611 103.879 145.238 104.468 144.848 104.406C144.632 104.372 144.506 104.102 144.425 103.931C144.206 103.467 144.092 102.954 144.004 102.452C143.802 101.287 143.795 99.9131 145.005 99.2938C145.284 99.151 145.847 98.8576 146.156 99.0636" stroke="white" stroke-width="3" stroke-linecap="round"/>
<path d="M121.32 93.0987C118.78 93.0987 116.104 92.8387 113.584 93.1627C111.705 93.4044 109.98 94.5104 108.557 95.72C106.671 97.3229 105 99.8338 105 102.404C105 104.072 105.335 105.318 105.994 106.856C106.814 108.771 107.823 110.733 109.237 112.285C112.683 116.067 117.711 115.542 122.192 114.127C123.41 113.743 124.613 112.982 125.633 112.221C126.645 111.466 127.847 110.291 128.074 109.001C128.667 105.631 128.392 102.326 126.865 99.2712C126.145 97.8306 125.395 96.4446 124.226 95.319C123.717 94.8288 122.836 94.1055 122.157 93.9357" stroke="#777373" stroke-width="3" stroke-linecap="round"/>
<path d="M143.24 93.1345C141.271 93.1345 138.896 92.7453 137.027 93.5065C136.296 93.8045 135.523 94.4898 135.022 95.0816C134.015 96.2716 133.483 97.4958 132.802 98.8885C132.204 100.11 131.737 101.239 131.546 102.573C131.357 103.899 131 105.171 131 106.52C131 107.658 131.327 108.496 131.901 109.467C132.849 111.072 134.014 112.602 135.4 113.849C136.723 115.04 138.885 115.209 140.573 115.209C142.405 115.209 144.143 115.09 145.937 114.686C146.675 114.52 147.516 114.369 148.157 113.954C148.704 113.599 149.25 113.227 149.831 112.931C151.167 112.25 152.024 111.043 153.08 110.03C154.073 109.079 154.523 108.197 154.684 106.781C154.893 104.946 154.895 102.828 154.522 101.016C154.172 99.3206 153.677 97.5211 152.993 95.9243C152.798 95.4701 152.493 95.2264 152.156 94.8898C151.319 94.0531 150.567 93.7857 149.517 93.3438C148.361 92.8567 146.794 93.0299 145.565 93.0299C144.719 93.0299 143.854 93.2392 143.031 93.2392" stroke="#777373" stroke-width="3" stroke-linecap="round"/>
<path d="M102.46 106.045C102.46 106.111 102.44 106.227 102.467 106.289C102.484 106.326 102.498 106.367 102.52 106.402C102.536 106.429 102.536 106.458 102.55 106.486C102.572 106.534 102.597 106.57 102.628 106.609C102.654 106.644 102.685 106.696 102.691 106.74C102.704 106.83 102.767 106.913 102.83 106.975C102.864 107.009 102.884 107.05 102.908 107.09C102.921 107.111 102.925 107.118 102.953 107.121C102.973 107.123 102.991 107.129 103.013 107.129" stroke="black" stroke-width="3" stroke-linecap="round"/>
<path d="M102.161 105.686C102.235 105.738 102.283 105.812 102.363 105.851C102.421 105.879 102.461 105.939 102.501 105.989C102.532 106.029 102.537 106.089 102.561 106.131C102.572 106.151 102.575 106.177 102.58 106.198C102.585 106.22 102.602 106.24 102.602 106.262" stroke="black" stroke-width="3" stroke-linecap="round"/>
<path d="M116.285 100.625C115.291 100.625 114.156 100.562 113.333 101.235C112.741 101.72 112.056 102.357 112.056 103.164C112.056 103.823 111.921 104.683 112.204 105.299C112.638 106.245 113.229 106.741 114.116 107.245C114.954 107.721 115.949 107.8 116.82 107.451C117.792 107.062 119.009 106.916 119.327 105.745C119.482 105.172 119.56 104.631 119.549 104.038C119.538 103.447 119.211 102.918 118.956 102.406C118.758 102.011 118.44 101.751 118.123 101.458C117.949 101.297 117.581 101.289 117.472 101.07" stroke="#DF7B50" stroke-width="3" stroke-linecap="round"/>
<path d="M142.772 100.699C142.195 100.699 141.372 100.546 140.843 100.811C140.433 101.015 140.072 101.248 139.746 101.573C139.227 102.092 138.853 102.71 138.761 103.449C138.675 104.138 138.479 105.159 138.988 105.74C139.34 106.143 139.65 106.55 140.043 106.915C140.398 107.245 140.995 107.355 141.453 107.435C143.62 107.812 147.075 106.957 147.075 104.265C147.075 102.603 145.376 101.666 144.033 101.219" stroke="#DF7B50" stroke-width="3" stroke-linecap="round"/>
<path d="M116.507 102.703C115.971 102.703 114.882 102.137 114.562 102.777C114.289 103.323 114.07 104.157 114.562 104.648C115.041 105.127 116.042 104.928 116.656 104.928C117.037 104.928 117.101 104.522 117.101 104.203C117.101 103.847 117.021 103.731 116.878 103.445" stroke="#843F22" stroke-width="3" stroke-linecap="round"/>
<path d="M143.068 103.296C142.427 103.281 141.857 103.019 141.288 103.354C140.998 103.524 141.255 104.65 141.436 104.854C141.883 105.357 143.014 105.1 143.456 104.689C143.725 104.439 144.009 104.235 144.239 103.947C144.485 103.641 143.95 103.667 143.81 103.667" stroke="#843F22" stroke-width="3" stroke-linecap="round"/>
<path d="M141.946 104.17C141.999 104.271 142.058 104.383 142.161 104.44C142.255 104.493 142.305 104.494 142.422 104.494C142.533 104.494 142.645 104.501 142.747 104.456C142.829 104.42 142.926 104.41 143.007 104.369C143.087 104.329 143.165 104.269 143.25 104.239C143.41 104.184 143.593 104.17 143.765 104.17C143.844 104.17 143.923 104.17 144.003 104.17C144.036 104.17 144.198 104.206 144.198 104.191" stroke="#843F22" stroke-width="3" stroke-linecap="round"/>
</svg>
